<?xml version="1.0" standalone="no"?>
<!DOCTYPE svg PUBLIC "-//W3C//DTD SVG 20010904//EN"
 "http://www.w3.org/TR/2001/REC-SVG-20010904/DTD/svg10.dtd">
<svg version="1.0" xmlns="http://www.w3.org/2000/svg"
 width="1024.000000pt" height="1024.000000pt" viewBox="0 0 1024.000000 1024.000000"
 preserveAspectRatio="xMidYMid meet">

<g transform="translate(0.000000,1024.000000) scale(0.100000,-0.100000)"
fill="#000000" stroke="none">
<path d="M8070 9594 c-51 -8 -107 -26 -180 -59 -41 -18 -97 -41 -123 -50 -26
-9 -71 -32 -99 -51 -27 -19 -54 -34 -59 -34 -6 0 -35 -19 -67 -42 -31 -23 -70
-47 -87 -52 -17 -6 -37 -17 -45 -24 -26 -22 -91 -62 -100 -62 -6 0 -10 -4 -10
-10 0 -5 -6 -10 -14 -10 -8 0 -16 -4 -18 -8 -4 -10 -115 -82 -127 -82 -4 0
-42 -29 -84 -65 -42 -36 -80 -65 -85 -65 -5 0 -19 -11 -32 -25 -13 -14 -28
-25 -33 -25 -5 0 -29 -19 -52 -42 -24 -24 -62 -56 -85 -73 -23 -16 -58 -48
-78 -70 -20 -22 -39 -39 -42 -39 -3 1 -11 -1 -18 -4 -12 -4 -115 2 -173 12
-15 2 -37 9 -49 16 -40 21 -153 50 -220 56 -36 3 -76 8 -90 11 -86 20 -352 35
-405 23 -20 -4 -35 -4 -35 1 0 5 -7 9 -16 9 -8 0 -13 -4 -10 -8 5 -9 -77 -7
-101 2 -7 3 -13 2 -13 -3 0 -12 -76 -61 -95 -61 -8 0 -15 6 -15 13 0 12 -92
22 -205 21 -312 -3 -446 -7 -475 -14 -19 -4 -69 -13 -110 -20 -41 -7 -102 -19
-135 -27 -67 -17 -152 -34 -175 -35 -8 -1 -17 -4 -20 -8 -9 -13 -174 -52 -245
-57 -38 -3 -85 -1 -103 4 -86 22 -460 -47 -607 -112 -16 -7 -43 -17 -60 -20
-52 -12 -227 -89 -232 -102 -8 -21 -26 -16 -129 38 -115 60 -199 112 -234 145
-14 12 -41 30 -60 39 -40 17 -33 13 -194 119 -191 125 -271 179 -276 186 -12
16 -248 130 -271 130 -19 0 -76 21 -116 43 -18 9 -65 24 -105 32 -40 8 -82 19
-93 24 -26 11 -172 79 -208 97 -16 8 -36 14 -45 14 -9 0 -29 6 -44 14 -110 58
-324 54 -499 -10 -41 -14 -83 -27 -93 -28 -11 -2 -24 -12 -29 -24 -6 -12 -14
-22 -18 -22 -17 0 -142 -90 -211 -152 -101 -89 -119 -110 -115 -127 2 -9 -7
-33 -20 -53 -13 -21 -23 -45 -23 -53 0 -9 -6 -31 -14 -50 -12 -28 -30 -207
-27 -265 3 -64 12 -144 20 -190 6 -30 15 -80 20 -110 16 -92 41 -203 56 -250
8 -25 17 -62 20 -82 3 -21 10 -38 15 -38 6 0 10 -5 10 -10 0 -6 18 -50 41 -98
23 -48 48 -109 56 -137 8 -27 30 -77 49 -111 19 -33 34 -68 34 -77 0 -9 13
-32 30 -50 16 -19 36 -48 42 -64 7 -16 36 -55 63 -87 28 -31 60 -75 72 -97 12
-22 28 -48 37 -58 8 -9 22 -32 30 -52 8 -19 34 -55 58 -79 24 -25 52 -62 63
-83 11 -21 38 -60 60 -86 61 -73 97 -120 125 -161 14 -21 49 -72 78 -115 28
-43 52 -81 52 -85 0 -4 13 -19 30 -33 16 -15 30 -32 30 -39 0 -6 17 -28 39
-47 21 -20 45 -49 54 -66 18 -37 83 -102 108 -110 11 -4 19 -10 19 -15 0 -5
12 -22 26 -39 33 -40 28 -62 -29 -133 -24 -29 -52 -69 -62 -88 -9 -19 -24 -43
-32 -52 -16 -18 -133 -246 -133 -259 0 -4 -5 -20 -12 -36 -27 -65 -44 -177
-35 -231 9 -54 9 -54 -31 -95 -63 -66 -143 -193 -169 -271 -14 -39 -27 -102
-29 -141 l-5 -70 53 -56 c38 -41 65 -60 98 -70 52 -15 62 -26 49 -50 -5 -10
-9 -40 -9 -68 0 -27 -5 -53 -10 -56 -16 -10 -5 -268 14 -338 9 -32 16 -65 16
-73 0 -9 9 -29 21 -45 11 -16 17 -29 12 -29 -4 0 0 -5 9 -11 10 -5 18 -19 18
-29 0 -10 5 -22 10 -25 5 -3 10 -16 10 -29 0 -14 14 -34 35 -52 19 -16 35 -35
35 -42 0 -7 4 -11 8 -8 12 7 54 -33 47 -45 -4 -5 -2 -9 3 -9 6 0 19 -15 31
-32 11 -18 21 -28 21 -23 0 10 50 -44 50 -54 0 -3 -12 -12 -27 -18 -16 -7 -50
-42 -78 -78 -27 -36 -67 -87 -87 -114 -21 -27 -38 -52 -38 -56 0 -4 -15 -32
-33 -63 -18 -31 -34 -60 -35 -65 -10 -46 -17 -71 -34 -122 -11 -33 -21 -68
-22 -78 0 -10 -5 -21 -11 -25 -18 -13 -25 -63 -32 -247 -6 -163 1 -197 55
-275 29 -41 46 -56 72 -63 19 -4 45 -11 58 -14 24 -6 92 38 92 60 1 13 34 57
44 57 3 0 6 -7 6 -15 0 -8 -4 -15 -9 -15 -9 0 -39 -114 -47 -181 -3 -24 -9
-48 -13 -54 -14 -18 -22 -65 -11 -65 13 0 13 -37 0 -45 -5 -3 -10 2 -11 12 -1
10 -11 -23 -23 -72 -22 -87 -22 -96 -10 -255 8 -90 16 -171 19 -179 4 -9 9
-36 11 -61 9 -89 43 -228 63 -261 29 -47 27 -61 -7 -53 -15 4 -39 15 -54 26
-14 10 -41 21 -60 24 -18 4 -38 10 -43 15 -15 11 -99 29 -164 35 -31 2 -93 9
-139 15 -137 18 -807 13 -939 -7 l-33 -5 0 -110 c0 -89 3 -111 15 -114 46 -15
50 -19 18 -23 -27 -3 -33 -8 -33 -26 0 -17 9 -27 33 -36 17 -7 46 -18 62 -25
17 -7 50 -18 75 -26 25 -7 50 -16 56 -20 10 -8 100 -35 164 -49 81 -17 314
-112 303 -123 -3 -4 -2 -7 4 -7 6 0 27 -11 47 -25 20 -14 48 -28 61 -31 14 -3
23 -10 20 -15 -3 -4 10 -11 30 -15 19 -3 35 -10 35 -14 0 -14 151 -100 192
-109 22 -5 44 -14 47 -20 4 -5 47 -15 96 -22 50 -6 114 -22 143 -35 29 -13 57
-24 63 -24 6 0 7 -5 4 -11 -4 -6 2 -13 14 -16 11 -3 19 -9 16 -13 -3 -5 7 -19
23 -32 30 -25 31 -27 39 -58 3 -12 14 -20 27 -20 17 0 18 -2 6 -10 -11 -7 -11
-10 -2 -10 7 0 11 -4 8 -9 -12 -19 101 -66 219 -91 33 -7 74 -16 90 -21 17 -4
53 -11 80 -14 64 -9 118 -26 128 -43 4 -6 25 -20 45 -30 35 -16 187 -17 2570
-20 1618 -1 2531 1 2527 7 -8 14 38 19 235 25 102 3 225 14 295 26 66 11 133
20 149 20 16 0 37 6 45 13 9 7 45 19 81 26 76 15 201 62 194 72 -2 5 15 13 38
19 24 6 53 15 66 20 13 6 36 10 52 10 16 0 33 6 37 14 12 20 68 46 102 46 16
0 32 4 35 9 3 5 30 14 58 21 53 12 154 56 163 70 3 4 17 11 31 14 15 4 33 14
41 21 8 8 24 15 35 15 12 0 30 8 40 17 11 10 42 18 76 21 31 3 66 11 77 18 11
7 64 20 117 28 53 8 105 19 116 25 12 6 32 11 46 11 31 0 57 10 51 19 -7 12
120 66 227 97 53 16 95 30 93 32 -6 7 125 72 144 72 10 0 21 9 24 21 3 11 14
23 24 25 10 3 23 15 28 27 6 11 28 30 50 42 95 51 119 65 110 65 -5 0 4 13 20
30 16 16 35 30 42 30 7 0 26 12 42 26 l29 26 2 200 c0 130 -3 197 -9 193 -6
-3 -111 -10 -233 -15 -123 -6 -259 -17 -303 -24 -44 -8 -100 -16 -125 -18 -25
-2 -47 -6 -50 -10 -3 -4 -39 -12 -80 -18 -41 -6 -94 -19 -117 -30 -24 -11 -46
-20 -50 -21 -5 0 -11 -9 -15 -20 -11 -28 -54 -22 -51 6 1 11 3 63 3 115 2 138
-25 244 -96 370 -76 135 -160 211 -291 261 -15 5 -23 17 -23 32 0 12 -6 31
-14 42 -17 25 -27 77 -13 68 7 -4 8 1 2 13 -4 10 -9 43 -11 72 -2 29 -8 71
-14 95 -14 60 -13 167 1 147 9 -12 9 -11 3 5 -32 87 -65 275 -48 275 5 0 19
-7 31 -15 19 -13 22 -13 35 8 26 40 41 115 34 170 -9 79 -37 146 -97 242 -14
22 -41 67 -59 100 -18 33 -49 80 -69 105 -20 25 -40 53 -46 62 -33 56 -108
158 -116 158 -21 0 -6 21 29 39 44 24 137 110 178 166 74 100 154 310 154 402
0 57 16 66 170 98 69 15 143 35 165 45 35 16 171 66 185 68 3 0 18 5 33 11 16
6 32 11 37 11 15 0 164 51 175 60 6 4 35 15 65 25 30 10 62 24 71 32 9 8 45
24 80 37 35 13 78 29 94 36 17 7 44 19 62 27 18 7 35 18 38 23 3 6 14 10 24
10 9 0 38 13 64 30 26 16 71 37 99 47 29 9 63 28 75 41 23 24 23 29 23 256 l0
232 -92 -44 c-51 -24 -106 -54 -123 -66 -16 -12 -52 -33 -80 -46 -27 -12 -81
-38 -120 -55 -38 -18 -96 -49 -128 -68 -33 -20 -73 -39 -90 -43 -18 -3 -39
-12 -47 -19 -8 -7 -41 -25 -72 -39 -32 -15 -58 -30 -58 -35 0 -7 -17 -15 -115
-56 -16 -7 -46 -20 -65 -28 -19 -9 -57 -22 -85 -30 -27 -8 -72 -25 -99 -36
-41 -18 -213 -71 -230 -71 -4 0 -6 17 -6 38 0 20 -7 50 -15 66 -19 35 -19 53
-2 63 8 4 22 20 31 34 11 18 30 29 54 34 20 4 56 15 79 26 23 10 45 19 49 19
4 0 26 16 50 35 23 19 47 35 52 35 5 0 16 8 26 19 9 10 36 26 59 36 23 9 49
21 57 26 8 5 36 20 63 34 26 14 47 31 47 37 0 6 3 8 7 5 3 -4 16 1 27 12 12
11 53 36 93 55 39 20 78 42 85 49 7 7 24 18 38 25 14 6 32 16 40 20 8 5 25 14
38 21 90 47 163 88 198 111 22 15 54 32 72 38 17 6 58 26 89 44 32 18 84 46
116 62 l57 28 0 270 0 270 -25 -23 c-14 -13 -33 -37 -41 -52 -9 -17 -22 -27
-32 -25 -11 2 -16 -3 -14 -14 2 -12 -2 -16 -12 -12 -8 3 -17 0 -21 -5 -3 -6
-10 -9 -15 -6 -10 6 -58 -21 -77 -43 -10 -12 -30 -19 -60 -21 -7 -1 -29 -17
-50 -36 -21 -19 -55 -40 -75 -45 -20 -6 -57 -25 -80 -43 -24 -19 -69 -46 -101
-60 -31 -15 -57 -31 -57 -36 0 -4 -19 -14 -42 -21 -24 -7 -56 -21 -71 -32 -16
-11 -31 -17 -34 -14 -4 4 -21 -8 -39 -25 -17 -17 -65 -47 -105 -68 -161 -82
-201 -104 -206 -117 -2 -6 -19 -18 -36 -25 -18 -7 -46 -23 -63 -36 -17 -13
-36 -23 -42 -23 -7 0 -28 -15 -48 -34 -19 -18 -61 -46 -92 -62 -31 -16 -65
-37 -76 -46 -11 -10 -22 -18 -25 -18 -13 0 -29 39 -60 140 -18 58 -37 109 -42
115 -5 5 -9 16 -9 25 0 8 -8 27 -17 40 -10 14 -18 29 -19 35 -1 5 -11 26 -22
45 -26 43 -72 138 -72 148 0 4 -21 30 -46 57 -46 50 -70 85 -67 96 1 4 -9 17
-22 29 -14 13 -25 28 -25 34 0 6 5 5 12 -2 20 -20 26 -14 53 44 23 50 24 59
12 78 -54 79 -160 150 -299 197 -34 12 -70 27 -78 34 -8 7 -30 20 -48 29 -42
21 -82 105 -82 171 0 45 1 47 129 175 71 72 137 147 146 168 10 20 24 41 31
45 8 4 14 12 14 18 0 11 9 22 57 74 18 19 35 46 39 60 3 14 9 25 13 25 4 0 15
18 25 41 10 22 29 52 42 66 13 14 24 32 24 39 0 7 4 14 8 16 19 8 62 77 62
100 0 14 7 31 15 38 8 7 15 17 15 23 0 14 82 179 96 194 7 7 15 27 19 45 7 32
57 192 74 233 15 38 31 91 31 106 0 9 9 25 20 37 12 13 16 22 9 22 -7 0 -2 11
11 25 13 14 20 25 15 25 -5 0 -4 5 3 12 7 7 12 24 12 39 0 15 7 34 15 43 8 8
15 22 15 30 0 9 5 16 10 16 6 0 10 7 10 15 0 9 7 32 16 53 10 20 19 48 21 61
2 13 11 40 20 60 8 20 17 74 20 121 2 47 5 101 6 120 2 19 -1 45 -5 57 -4 12
-3 25 3 28 5 4 6 11 2 18 -3 6 -7 37 -8 69 -2 32 -5 62 -9 65 -3 3 -6 18 -6
33 0 14 -4 30 -8 36 -5 5 -15 28 -22 52 -7 23 -19 47 -27 53 -7 6 -13 19 -13
28 -1 9 -14 41 -30 71 -17 30 -30 60 -30 67 0 6 -18 31 -41 55 -22 23 -50 60
-62 81 -12 21 -31 40 -45 44 -13 3 -47 18 -76 33 -58 31 -77 36 -196 56 -79
13 -211 16 -270 8z m336 -182 c23 -5 62 -25 85 -43 24 -19 45 -34 47 -35 2 -1
4 -10 5 -21 0 -11 9 -20 20 -21 23 -1 37 -13 40 -33 2 -8 5 -18 9 -24 3 -5 13
-34 22 -63 8 -29 25 -66 36 -82 12 -17 18 -34 15 -40 -3 -5 0 -10 8 -10 7 0
24 -18 36 -41 20 -34 23 -56 23 -128 0 -120 -10 -259 -23 -306 -5 -22 -11 -45
-12 -50 -1 -6 -17 -32 -35 -58 -17 -27 -32 -57 -32 -67 0 -11 -11 -43 -24 -72
-13 -29 -34 -87 -47 -128 -12 -41 -25 -79 -29 -85 -4 -5 -15 -35 -25 -65 -10
-30 -20 -59 -24 -65 -3 -5 -7 -19 -8 -30 -4 -29 -31 -104 -53 -145 -10 -19
-21 -46 -25 -60 -4 -14 -19 -43 -33 -64 -13 -22 -52 -93 -86 -158 -34 -64 -75
-133 -91 -152 -17 -18 -31 -40 -33 -47 -2 -7 -12 -19 -23 -27 -10 -7 -19 -21
-19 -31 0 -19 -45 -92 -82 -130 -23 -25 -32 -40 -81 -133 -36 -68 -90 -148
-99 -148 -10 0 -11 6 -13 130 -2 144 -46 316 -131 510 -13 30 -35 85 -48 121
-20 55 -72 170 -117 261 -5 10 -9 24 -9 33 0 8 -9 34 -21 57 -22 45 -27 54
-59 103 -26 40 -25 44 11 52 19 3 34 14 36 25 3 10 12 18 19 18 8 0 14 5 14
10 0 6 11 27 24 48 33 49 56 136 54 195 -1 26 -5 47 -8 47 -3 0 -7 14 -8 31
-2 19 -14 43 -32 61 -36 35 -39 64 -7 74 19 6 48 25 105 69 7 6 33 29 57 53
25 23 50 42 55 42 5 0 15 9 22 21 7 11 28 27 46 36 18 9 31 18 28 20 -7 7 20
33 33 33 6 0 11 5 11 10 0 6 7 10 15 10 9 0 12 6 8 17 -4 10 -2 14 4 10 6 -4
13 -4 15 0 4 9 55 51 88 73 13 8 32 23 42 33 10 9 24 17 32 17 13 0 21 11 25
35 1 6 14 16 27 23 20 10 24 19 20 35 -3 12 -6 30 -6 39 0 23 -39 32 -75 17
-17 -7 -38 -14 -48 -15 -9 -2 -39 -20 -67 -39 -27 -19 -57 -35 -65 -35 -9 0
-13 -4 -10 -10 3 -5 0 -10 -8 -10 -7 0 -34 -20 -59 -45 -25 -25 -49 -45 -53
-45 -13 0 -154 -125 -160 -142 -3 -9 -25 -28 -48 -42 -23 -13 -74 -57 -113
-98 -59 -60 -72 -80 -76 -112 -4 -32 -1 -40 19 -49 13 -5 23 -18 23 -28 0 -19
41 -65 79 -90 l25 -16 -22 -28 c-12 -15 -22 -33 -22 -39 0 -6 -13 -26 -30 -44
-16 -18 -30 -38 -30 -45 0 -6 -7 -2 -15 9 -14 18 -14 18 -15 -8 0 -18 -5 -28
-15 -28 -8 0 -15 -4 -15 -10 0 -5 -7 -10 -15 -10 -8 0 -15 -7 -15 -15 0 -8 -5
-15 -11 -15 -5 0 -7 6 -3 13 6 10 4 10 -7 0 -7 -7 -21 -13 -32 -13 -21 0 -49
24 -40 34 4 3 0 6 -9 6 -8 0 -23 9 -32 19 -10 11 -31 24 -46 30 -24 8 -33 6
-56 -15 l-26 -25 21 -23 22 -23 -25 4 c-37 8 -32 -7 24 -66 32 -34 52 -64 56
-87 6 -31 10 -35 30 -31 13 2 21 0 18 -4 -3 -5 6 -13 20 -19 14 -5 26 -12 26
-16 0 -3 -6 -4 -13 -1 -8 3 -20 1 -28 -4 -9 -6 -2 -8 22 -5 35 5 36 3 52 -42
43 -127 69 -190 97 -232 9 -14 25 -47 35 -75 10 -27 26 -68 35 -90 10 -22 24
-56 31 -75 7 -19 23 -52 36 -72 12 -20 24 -47 27 -60 2 -13 11 -39 19 -58 41
-94 59 -204 77 -475 6 -88 17 -187 25 -220 7 -33 16 -85 20 -115 7 -59 31
-107 65 -128 11 -7 18 -17 15 -23 -4 -5 -3 -8 2 -7 4 2 24 -13 44 -33 22 -22
48 -38 70 -41 64 -11 245 -132 220 -147 -6 -4 -11 -34 -13 -67 -2 -64 6 -85
59 -145 29 -32 93 -135 93 -149 0 -5 7 -13 16 -18 10 -5 17 -24 19 -44 1 -20
13 -51 26 -69 30 -43 60 -97 57 -106 -2 -12 38 -94 43 -88 3 2 5 -5 6 -15 2
-19 45 -117 83 -190 18 -35 18 -35 -3 -51 -12 -9 -35 -19 -51 -23 -16 -4 -55
-25 -87 -47 -32 -21 -62 -39 -67 -39 -6 0 -13 -7 -16 -16 -3 -8 -10 -13 -15
-9 -6 3 -15 -4 -21 -15 -6 -11 -17 -20 -26 -20 -20 0 -122 -55 -166 -90 -20
-17 -43 -30 -51 -30 -8 0 -26 -9 -41 -21 l-26 -20 6 33 c3 18 12 50 20 71 18
49 18 143 -1 251 -16 90 -65 193 -139 291 -57 76 -234 240 -342 319 -212 153
-288 206 -296 206 -9 0 -107 60 -268 163 -47 30 -107 66 -135 80 -51 26 -103
72 -93 83 4 3 15 1 27 -5 30 -17 137 -26 145 -13 5 8 17 5 39 -7 26 -14 35
-16 44 -6 7 7 9 16 6 19 -4 3 -1 6 5 6 7 0 12 -5 12 -12 0 -6 7 -3 15 8 13 17
14 17 15 2 0 -20 2 -21 24 -12 9 3 14 9 11 13 -2 4 1 8 8 8 26 0 112 48 143
80 35 34 44 68 22 75 -9 3 -8 9 5 22 22 22 24 162 3 249 -7 31 -11 57 -7 57 3
0 1 4 -5 8 -5 4 -15 27 -21 52 -14 58 -46 144 -55 148 -5 2 -8 12 -8 22 0 10
-18 40 -41 66 -22 26 -47 57 -56 70 -8 13 -22 24 -31 24 -8 0 -48 20 -90 45
-41 25 -82 45 -92 45 -10 0 -37 7 -61 15 -47 17 -130 16 -164 -2 -11 -6 -26
-8 -34 -5 -10 3 -12 0 -8 -12 4 -11 2 -16 -6 -14 -15 3 -54 -34 -68 -65 -5
-12 -20 -40 -34 -62 -13 -22 -27 -47 -31 -55 -4 -8 -11 -17 -14 -20 -11 -8 10
-266 23 -300 4 -8 12 -28 18 -45 7 -16 14 -43 16 -58 5 -49 63 -136 146 -216
26 -26 47 -49 47 -52 0 -2 -21 -5 -47 -7 -37 -2 -51 2 -70 20 -21 19 -26 20
-34 8 -9 -13 -10 -13 -6 0 6 23 -28 53 -51 46 -14 -5 -25 -1 -34 12 -12 16
-114 72 -132 72 -4 0 -4 -5 0 -12 5 -7 2 -9 -7 -6 -73 28 -80 16 -31 -51 35
-48 72 -74 169 -121 23 -11 45 -25 48 -30 3 -6 13 -10 21 -10 9 0 40 -20 68
-45 29 -25 56 -45 59 -45 16 0 107 -45 107 -52 0 -4 17 -26 37 -49 33 -36 41
-40 70 -36 23 4 33 2 33 -7 0 -14 14 -25 123 -95 21 -13 42 -32 47 -42 6 -10
30 -27 54 -38 37 -16 100 -59 164 -111 6 -6 12 -8 12 -5 0 4 20 -8 45 -26 25
-18 45 -36 45 -41 0 -4 7 -8 15 -8 8 0 29 -18 46 -40 18 -22 36 -40 41 -40 22
0 101 -68 106 -91 2 -8 13 -22 25 -32 55 -44 131 -125 143 -152 7 -16 24 -42
39 -57 32 -34 45 -68 45 -117 0 -20 5 -42 12 -49 12 -12 15 -220 5 -282 -3
-14 -5 -42 -6 -63 -1 -30 -6 -39 -26 -47 -13 -5 -43 -21 -66 -36 -23 -14 -83
-47 -133 -72 -50 -25 -95 -50 -101 -54 -56 -46 -102 -78 -112 -78 -15 0 -16 3
-17 103 -1 76 0 78 22 74 12 -2 22 -1 22 4 0 4 -10 9 -22 11 -27 4 -37 50 -17
74 10 12 3 14 -43 14 -30 0 -59 5 -65 11 -6 6 -31 11 -57 12 -27 1 -48 7 -51
15 -3 9 -13 11 -26 7 -15 -5 -19 -4 -15 4 9 14 0 14 -25 0 -12 -6 -28 -8 -36
-5 -12 5 -8 12 18 29 34 23 134 146 144 178 3 10 29 29 58 42 97 46 96 43 83
227 -9 137 -32 264 -57 311 -12 24 -15 40 -9 44 14 9 3 25 -13 20 -7 -3 -34
15 -61 39 -33 30 -61 47 -87 51 -22 4 -39 11 -39 16 0 6 -5 7 -12 3 -6 -4 -58
-9 -115 -10 -57 -2 -147 -8 -201 -15 -53 -6 -111 -12 -127 -13 -26 -1 -80 -28
-198 -99 -17 -10 -43 -31 -58 -45 -15 -15 -43 -40 -63 -55 -47 -37 -96 -139
-96 -199 0 -26 9 -67 20 -92 10 -25 22 -70 25 -99 14 -114 23 -119 195 -123
58 -1 116 -4 130 -7 14 -2 35 -5 46 -6 12 0 25 -9 28 -18 4 -10 13 -30 22 -46
15 -26 14 -29 -10 -58 -14 -17 -26 -36 -26 -44 0 -7 -6 -18 -14 -24 -8 -7 -12
-21 -9 -31 7 -25 43 -26 50 -2 4 17 9 17 76 5 40 -7 84 -12 99 -13 15 0 39 -5
54 -10 48 -19 12 -34 -87 -37 -63 -1 -103 -8 -132 -21 -98 -44 -118 -52 -132
-52 -8 0 -15 -3 -15 -7 0 -12 -61 -44 -71 -37 -6 3 -21 -2 -36 -11 -14 -9 -55
-27 -92 -40 -36 -13 -97 -36 -136 -51 -38 -15 -102 -39 -142 -53 -84 -31 -83
-30 -87 -67 -2 -16 -4 -33 -5 -38 0 -4 -8 -6 -16 -2 -8 3 -15 1 -15 -3 0 -12
26 -21 59 -21 15 0 30 -2 33 -5 3 -3 0 -29 -7 -58 l-12 -52 -57 3 c-64 3 -114
29 -172 90 -44 46 -104 134 -128 187 -10 22 -27 58 -37 81 -24 51 -24 57 3
184 16 75 24 97 28 80 5 -21 7 -18 14 20 4 24 12 50 18 57 6 8 8 16 4 20 -3 4
2 16 12 27 10 12 27 41 37 66 11 25 25 51 32 58 7 7 13 20 13 28 0 9 5 12 11
8 16 -10 2 44 -16 62 -18 18 -25 18 -25 -1 0 -11 -7 -14 -24 -9 -18 4 -34 -4
-69 -35 -26 -21 -56 -42 -67 -46 -11 -3 -20 -11 -20 -16 0 -5 -10 -23 -21 -38
-12 -16 -23 -44 -25 -63 -2 -18 -8 -49 -13 -68 -5 -19 -17 -62 -25 -95 -8 -33
-21 -85 -30 -115 -17 -58 -14 -80 15 -137 10 -21 19 -49 19 -63 0 -14 16 -48
35 -75 19 -28 46 -73 60 -102 29 -59 62 -87 188 -162 69 -42 101 -55 154 -62
37 -5 69 -12 72 -14 2 -3 -1 -22 -7 -42 -6 -21 -15 -63 -22 -93 -6 -30 -27
-87 -46 -126 -19 -39 -36 -84 -37 -100 -1 -16 -6 -28 -10 -26 -4 1 -23 2 -42
2 -19 0 -35 5 -35 11 0 7 12 10 29 7 25 -4 30 0 34 20 10 52 -10 72 -74 72
-14 0 -52 9 -84 20 -32 11 -71 20 -87 20 -15 0 -28 4 -28 10 0 9 -44 11 -87 4
-17 -3 -23 -11 -23 -29 0 -14 5 -25 10 -25 7 0 7 -7 0 -21 -7 -11 -9 -23 -6
-26 9 -9 49 -32 69 -39 9 -3 17 -10 17 -15 0 -5 7 -9 15 -9 8 0 15 -3 15 -8 0
-15 185 -71 218 -66 19 3 22 0 19 -19 -2 -12 -9 -35 -15 -50 -7 -16 -12 -30
-12 -33 0 -2 -12 -23 -27 -47 -15 -23 -33 -53 -40 -67 -7 -14 -22 -38 -33 -55
-11 -16 -29 -49 -41 -71 -16 -31 -31 -44 -57 -52 -19 -6 -39 -9 -44 -6 -24 15
-173 4 -293 -21 -175 -36 -213 -47 -330 -90 -55 -20 -114 -41 -132 -46 -18 -5
-35 -14 -38 -19 -4 -6 -15 -10 -26 -10 -10 0 -19 -4 -19 -8 0 -5 -17 -14 -37
-20 -21 -6 -65 -29 -99 -51 -69 -45 -224 -188 -224 -207 0 -6 -13 -26 -29 -43
-24 -25 -34 -30 -59 -25 -18 4 -43 0 -63 -9 -19 -9 -67 -18 -107 -20 -73 -4
-74 -3 -69 20 3 15 0 23 -10 23 -10 0 -12 -6 -8 -20 5 -15 3 -18 -9 -14 -9 3
-16 11 -16 17 0 6 -6 3 -13 -7 -13 -18 -47 -13 -47 8 0 6 -7 2 -16 -9 -17 -23
-42 -13 -59 23 -11 25 -30 30 -21 7 8 -21 -20 -31 -39 -15 -12 10 -18 10 -30
0 -10 -8 -19 -9 -27 -3 -7 6 -21 9 -32 7 -10 -1 -23 2 -30 7 -6 5 -20 17 -31
25 -14 11 -15 14 -4 11 13 -4 15 -1 12 14 -5 19 -23 27 -23 11 0 -9 -22 -8
-57 3 -14 5 -23 15 -23 28 0 16 -3 18 -12 9 -7 -7 -20 -12 -30 -12 -9 0 -21
-7 -26 -17 -6 -10 -16 -14 -26 -10 -10 4 -14 12 -10 18 4 8 3 9 -5 5 -6 -4
-18 -3 -25 3 -11 9 -18 8 -29 -3 -17 -18 -28 -11 -20 12 3 13 1 13 -11 -2 -9
-11 -16 -15 -16 -9 0 6 -15 16 -33 23 -17 7 -41 16 -52 21 -32 14 -141 47
-180 55 -19 3 -35 9 -35 13 0 4 -10 7 -21 8 -12 1 -29 8 -38 16 -9 8 -35 24
-59 36 -23 12 -42 27 -42 33 0 6 -3 9 -6 5 -7 -6 -68 14 -132 43 -23 11 -59
37 -80 59 -20 21 -43 36 -49 34 -7 -3 -23 3 -35 11 -25 18 -42 21 -33 6 3 -5
-3 -10 -14 -10 -23 0 -58 55 -41 65 18 11 11 71 -12 97 -17 20 -37 28 -78 33
-48 6 -87 15 -140 33 -8 3 -22 6 -30 8 -8 2 -16 8 -18 13 -2 6 -9 11 -17 11
-15 0 -88 33 -130 60 -16 10 -47 19 -67 19 -20 1 -40 6 -43 12 -4 6 -14 8 -22
5 -8 -3 -36 5 -63 19 -28 14 -53 25 -57 24 -3 0 -10 6 -14 14 -5 8 -30 22 -56
32 -26 10 -73 40 -104 67 -31 26 -61 48 -67 48 -6 0 -17 11 -24 24 -21 38 -89
126 -98 126 -4 0 -13 21 -19 47 -7 27 -21 65 -32 87 -19 37 -29 75 -48 181
-10 57 -7 134 9 250 7 44 14 97 17 118 5 33 1 42 -28 70 -20 19 -42 31 -52 29
-27 -5 -78 18 -70 32 3 6 3 8 -2 4 -4 -4 -16 -3 -27 3 -23 12 -21 45 5 74 15
17 19 18 27 5 8 -13 10 -12 10 3 0 15 -17 22 -42 18 -11 -1 -10 13 4 46 6 15
12 33 12 38 3 27 106 151 106 128 0 -7 -4 -13 -10 -13 -5 0 -10 -8 -10 -17 1
-16 2 -16 16 2 25 32 38 59 25 51 -23 -14 -9 3 49 65 91 95 94 104 69 181 -24
74 -20 143 10 185 26 37 40 89 20 78 -8 -5 -11 -4 -6 1 5 5 14 9 20 9 5 0 17
20 25 45 9 25 23 59 34 75 10 17 22 40 28 53 5 12 14 22 20 22 5 0 10 9 10 19
0 10 6 21 14 24 7 3 23 26 35 51 19 38 26 45 52 44 16 -1 34 -7 40 -15 11 -13
52 -33 92 -47 10 -3 29 -3 42 0 30 8 43 66 21 97 -17 26 -172 184 -237 243
-26 23 -61 63 -79 88 -18 25 -37 46 -41 46 -5 0 -15 13 -23 28 -8 16 -32 46
-53 69 -80 84 -102 115 -118 162 -9 27 -22 51 -29 54 -7 3 -34 36 -59 74 -25
37 -77 104 -116 148 -64 71 -76 89 -69 98 1 1 -11 16 -28 33 -17 17 -36 45
-43 62 -8 18 -17 32 -21 32 -12 0 -63 70 -64 89 -3 29 -29 70 -47 76 -10 3
-16 12 -13 19 2 6 -9 24 -26 39 -16 15 -30 34 -30 42 0 8 -16 30 -36 49 -23
21 -34 40 -31 49 6 17 -23 57 -42 57 -6 0 -11 5 -11 10 0 11 -32 83 -101 225
-43 90 -99 233 -99 253 0 7 -7 27 -16 45 -9 17 -18 43 -19 57 -4 43 -25 110
-35 110 -5 0 -7 7 -4 15 4 8 -1 33 -10 56 -9 22 -19 73 -22 112 -2 40 -8 95
-13 122 -7 45 -4 94 15 224 7 50 84 171 154 242 49 50 122 102 158 113 12 4
22 11 22 15 0 14 77 51 136 64 86 20 194 21 287 2 90 -18 129 -33 121 -46 -3
-5 1 -6 9 -3 8 3 20 -2 27 -11 7 -8 17 -15 22 -15 5 0 39 -15 76 -32 37 -18
73 -31 79 -30 7 2 34 -4 60 -13 27 -9 66 -20 88 -25 89 -20 100 -24 110 -37 9
-12 32 -18 78 -22 5 -1 5 -5 2 -11 -3 -6 1 -7 9 -4 8 3 29 -4 45 -15 16 -12
34 -21 39 -21 6 0 14 -5 18 -12 5 -7 3 -8 -6 -3 -8 5 -11 4 -6 -3 3 -5 19 -8
35 -6 17 3 33 -1 41 -11 7 -8 19 -15 26 -15 8 0 14 -5 14 -11 0 -5 4 -8 9 -5
5 3 11 0 14 -8 3 -7 30 -27 61 -45 31 -17 56 -36 56 -41 0 -6 7 -10 15 -10 8
0 15 -4 15 -10 0 -5 7 -10 16 -10 8 0 13 -3 10 -8 -2 -4 13 -16 35 -26 21 -10
36 -23 33 -27 -3 -5 1 -6 9 -3 8 3 27 -6 42 -20 15 -14 34 -26 41 -26 8 0 14
-4 14 -10 0 -5 8 -10 19 -10 10 0 24 -6 30 -13 6 -8 29 -19 51 -26 22 -6 40
-15 40 -20 0 -4 16 -15 35 -24 20 -9 38 -24 41 -32 4 -8 10 -13 14 -10 4 3 14
-3 21 -12 12 -14 12 -16 -1 -8 -13 8 -13 7 -1 -8 7 -9 20 -17 27 -17 8 0 14
-5 14 -11 0 -5 4 -7 10 -4 5 3 27 -3 48 -14 60 -31 144 -61 170 -61 12 0 22
-4 22 -10 0 -5 11 -10 24 -10 13 0 26 -5 28 -10 4 -13 85 14 156 52 29 15 63
28 76 28 24 0 131 34 150 48 25 19 109 44 136 40 17 -3 31 1 34 8 4 11 55 24
111 29 11 2 33 8 48 14 16 6 41 11 55 11 72 -1 201 11 270 26 89 19 88 19 166
11 104 -12 123 -18 157 -53 18 -19 39 -34 46 -34 7 0 13 -3 13 -7 0 -5 16 -25
35 -45 19 -20 35 -40 35 -45 0 -5 8 -16 18 -24 9 -9 42 -50 72 -92 30 -42 61
-76 69 -76 8 -1 12 -4 8 -7 -6 -6 89 -155 121 -189 10 -11 51 -87 91 -170 139
-288 161 -338 161 -365 0 -21 36 -108 54 -130 43 -52 127 -352 118 -422 -1
-11 5 -18 14 -18 10 0 15 -8 13 -22 -1 -13 3 -48 9 -78 6 -30 13 -71 15 -90 2
-20 6 -41 10 -47 4 -6 11 -39 15 -73 5 -35 16 -68 26 -78 16 -16 18 -16 32 2
8 11 14 28 14 38 0 10 5 18 10 18 6 0 10 12 10 28 0 15 4 42 9 60 6 20 6 43 1
57 -5 13 -10 51 -11 85 -1 33 -6 63 -10 65 -4 3 -5 14 -2 24 3 10 0 28 -5 38
-6 11 -13 44 -17 74 -8 78 -25 159 -41 196 -8 17 -14 34 -14 38 0 9 -24 66
-53 125 -12 24 -22 49 -23 55 -2 31 -18 84 -35 113 -10 18 -22 51 -25 73 -4
21 -12 39 -18 39 -7 0 -20 25 -30 55 -9 30 -20 55 -25 55 -4 0 -13 17 -20 38
-16 46 -76 156 -96 176 -8 8 -37 51 -64 95 -27 45 -73 106 -103 137 -29 30
-61 69 -70 87 -22 41 -241 256 -291 286 -21 13 -44 21 -52 18 -7 -3 -19 1 -26
9 -7 9 -21 13 -32 10 -12 -3 -16 -1 -11 4 8 8 117 34 181 43 12 2 26 6 29 10
4 4 18 4 31 1 13 -4 29 -1 37 5 8 7 18 11 22 9 5 -1 38 1 74 5 36 4 175 14
310 22 135 8 272 19 305 25 33 5 81 10 106 10 43 0 48 -3 63 -34 9 -19 16 -38
16 -43 0 -12 112 -232 137 -269 89 -134 207 -424 273 -669 18 -66 48 -174 67
-240 19 -66 36 -136 38 -155 2 -19 9 -69 15 -110 6 -41 15 -129 20 -195 10
-127 21 -167 58 -228 33 -52 102 -65 102 -19 0 10 5 23 10 28 8 8 5 26 -8 60
-14 35 -21 87 -26 184 -11 226 -7 205 -90 570 -19 85 -39 169 -45 185 -5 17
-19 64 -32 105 -13 41 -30 86 -40 100 -21 32 -69 134 -69 147 0 6 -22 53 -50
106 -27 52 -47 97 -43 101 3 3 -1 6 -10 6 -17 0 -57 50 -57 72 0 7 -9 24 -20
38 -11 14 -45 61 -75 105 -30 44 -65 92 -77 107 -12 15 -18 31 -14 35 4 5 89
8 189 8 175 -1 291 -14 412 -46 38 -11 68 -15 165 -23 24 -2 46 -9 48 -15 2
-6 14 -8 28 -5 13 3 24 2 24 -3 0 -6 25 -15 55 -22 30 -7 53 -16 50 -21 -5 -8
43 -21 80 -21 38 -1 109 19 113 31 7 20 73 90 86 90 6 0 39 28 74 61 38 36 67
57 75 53 7 -4 9 -4 5 1 -4 4 32 33 80 63 48 31 106 75 129 98 41 41 104 88
154 112 14 8 39 26 56 42 17 16 54 40 82 54 29 14 75 42 103 63 27 21 55 37
61 35 6 -2 20 1 31 6 12 6 29 13 40 16 11 4 16 12 12 21 -7 18 39 55 69 55 12
0 28 7 35 15 7 9 18 14 24 12 6 -2 22 7 36 20 14 13 29 23 33 23 5 0 23 6 40
14 54 24 73 28 217 44 66 7 162 1 236 -16z m-1378 -2494 c7 -10 32 -103 32
-122 0 -2 -11 -6 -24 -8 -18 -4 -28 2 -40 23 -9 15 -13 35 -9 45 4 10 2 15 -4
11 -5 -3 -10 0 -10 8 0 8 4 15 9 15 5 0 6 5 3 10 -15 25 24 41 43 18z m-31
-134 c-3 -3 -12 -4 -19 -1 -8 3 -5 6 6 6 11 1 17 -2 13 -5z m253 -221 c0 -10
-4 -24 -8 -31 -6 -8 -9 -2 -9 18 0 16 4 30 9 30 4 0 8 -8 8 -17z m-600 -198
c11 -13 10 -14 -4 -9 -9 3 -16 10 -16 15 0 13 6 11 20 -6z m40 -16 c0 -5 4 -8
9 -4 5 3 13 0 16 -6 5 -7 -1 -9 -16 -7 -22 3 -40 28 -20 28 6 0 11 -5 11 -11z
m14 -824 c-22 -47 -69 -69 -129 -61 -49 8 -66 23 -38 33 10 3 30 19 45 35 32
33 48 36 48 8 0 -31 35 -24 61 12 28 39 36 22 13 -27z m1951 -768 c4 -13 5
-43 3 -68 l-3 -44 -77 -30 c-42 -17 -104 -45 -138 -63 -34 -19 -69 -35 -78
-37 -22 -5 -176 -63 -227 -85 -22 -9 -69 -25 -105 -35 -36 -10 -83 -26 -106
-36 -22 -11 -47 -19 -55 -19 -8 -1 -32 -12 -54 -26 -22 -13 -60 -34 -85 -45
-24 -12 -66 -37 -92 -55 -26 -19 -54 -34 -61 -34 -37 0 -184 -99 -213 -144
-16 -23 -19 -38 -13 -60 9 -33 56 -80 85 -84 74 -9 154 3 210 32 46 24 181 67
269 87 72 16 159 41 193 56 18 8 50 17 70 20 20 2 44 7 52 10 8 3 25 5 37 4
12 -1 25 5 30 13 10 19 140 53 220 59 57 4 58 3 59 -22 2 -70 -236 -351 -297
-351 -10 0 -19 -4 -19 -8 0 -5 -18 -14 -40 -21 -47 -14 -67 -43 -52 -76 11
-23 68 -55 99 -55 12 0 25 -11 31 -26 7 -14 8 -23 3 -20 -5 4 2 -16 15 -44 13
-27 24 -56 24 -62 0 -7 7 -26 15 -42 9 -16 13 -31 10 -34 -3 -3 0 -11 6 -18 6
-8 9 -21 5 -29 -4 -11 0 -15 12 -13 9 2 16 -3 15 -9 -2 -7 5 -13 14 -13 9 0
14 -3 10 -6 -3 -3 11 -27 30 -52 30 -40 33 -48 18 -50 -15 -3 -14 -6 5 -15 28
-14 40 -40 15 -31 -11 5 -8 -3 9 -21 14 -15 26 -33 27 -39 4 -64 3 -73 -8 -69
-7 3 -13 0 -13 -6 0 -6 -7 -11 -15 -11 -31 0 -49 -84 -25 -115 7 -10 17 -46
27 -95 2 -13 7 -27 11 -30 4 -3 13 -15 19 -27 14 -25 -3 -46 -18 -22 -10 15
-10 14 -14 -19 -2 -17 1 -20 8 -13 22 22 35 11 38 -33 2 -24 1 -42 -4 -39 -4
2 -5 -13 -1 -34 3 -21 7 -52 8 -70 0 -17 4 -35 9 -39 10 -11 9 -26 -2 -19 -6
3 -6 -8 0 -27 6 -18 12 -62 15 -98 3 -36 7 -80 9 -97 2 -18 0 -35 -5 -38 -4
-3 -7 -13 -5 -23 1 -9 0 -11 -2 -5 -6 17 -20 17 -26 1 -4 -10 -8 -10 -15 1 -7
9 -15 10 -28 3 -32 -16 -86 -23 -78 -10 4 6 3 8 -4 4 -6 -3 -30 -9 -54 -12
-61 -9 -151 -41 -165 -60 -17 -24 -15 -107 3 -100 7 3 16 1 19 -4 4 -6 1 -10
-6 -10 -7 0 -9 -3 -5 -7 11 -11 70 -10 77 1 4 5 40 10 80 13 148 8 407 -67
488 -141 88 -79 121 -120 132 -160 6 -23 17 -48 24 -56 21 -24 46 -170 42
-248 -4 -79 -18 -103 -69 -121 -27 -9 -29 -9 -23 7 22 52 28 187 11 260 -14
63 -87 132 -139 132 -78 -1 -91 -30 -43 -102 19 -29 39 -72 44 -95 9 -38 7
-61 -13 -150 -8 -36 -82 -109 -120 -119 -14 -3 -39 -4 -55 -1 -16 4 -30 2 -32
-3 -2 -5 -9 -6 -17 -1 -11 7 -11 12 2 32 24 39 49 128 42 147 -4 9 -9 42 -11
73 -3 75 -35 137 -98 197 -108 102 -224 89 -130 -14 42 -46 84 -147 91 -216 6
-61 -10 -111 -57 -174 -46 -61 -88 -76 -195 -71 -67 3 -81 8 -232 73 -17 8
-40 14 -50 14 -11 0 -28 7 -39 15 -10 8 -29 15 -41 15 -23 0 -30 18 -14 35 23
26 45 340 43 620 -1 50 4 124 10 165 6 41 12 91 14 110 2 19 8 57 13 85 9 45
11 77 12 200 1 62 -13 165 -22 171 -5 3 -9 14 -9 25 0 10 -4 19 -9 19 -6 0
-18 24 -27 54 -30 94 -165 217 -307 280 -32 14 -70 34 -85 44 -31 21 -158 67
-216 77 -21 3 -50 11 -65 17 -14 6 -30 10 -35 9 -24 -5 -163 34 -179 51 -18
18 -16 58 4 58 5 0 9 21 8 48 -2 126 0 152 12 152 7 0 9 10 6 30 -4 17 -3 30
2 30 4 0 9 30 10 68 0 37 3 83 6 102 3 19 7 104 8 189 2 93 7 156 13 158 5 2
8 20 6 40 -3 20 -1 33 5 30 5 -3 9 2 10 11 1 9 4 40 6 67 2 28 14 86 25 130
21 84 34 145 36 182 0 12 4 24 8 28 4 4 4 13 2 20 -3 7 5 15 18 19 30 8 53 8
45 0 -4 -4 1 -19 11 -33 20 -30 19 -69 -3 -151 -4 -14 -7 -35 -8 -46 -1 -12
-6 -20 -13 -17 -7 2 -11 -7 -11 -24 1 -52 -27 -233 -43 -283 -4 -14 -20 -67
-36 -117 -17 -55 -34 -93 -41 -93 -7 0 -13 -5 -13 -11 0 -5 5 -7 11 -3 8 4 9
-1 3 -17 -11 -32 -7 -98 7 -115 6 -8 23 -14 38 -14 23 0 32 13 89 130 34 71
62 139 62 152 0 25 36 99 54 110 8 6 7 8 -1 8 -18 0 -16 33 4 79 16 37 21 40
77 51 34 7 107 34 163 61 57 27 109 49 116 49 7 0 22 7 33 15 10 8 25 15 33
15 8 0 48 16 88 35 41 19 91 39 111 45 82 21 122 35 122 42 0 4 7 8 16 8 8 0
34 13 57 29 23 16 44 28 47 28 14 -1 261 127 275 143 9 10 23 16 31 13 8 -3
21 0 29 7 18 15 97 59 107 60 4 0 10 -10 13 -23z m-1549 -28 c3 -5 19 -9 36
-9 28 0 30 -2 23 -27 -4 -16 -8 -29 -10 -31 -7 -7 -45 19 -45 31 0 7 -9 13
-20 14 -11 1 -18 -2 -16 -6 3 -5 1 -23 -4 -42 -6 -19 -12 -52 -15 -74 -5 -40
-21 -100 -56 -211 -10 -33 -19 -69 -19 -80 0 -10 -7 -32 -15 -48 -8 -15 -15
-35 -15 -42 0 -8 -8 -14 -17 -15 -11 0 -13 -3 -5 -6 13 -5 16 -35 5 -47 -5 -4
-9 -20 -9 -34 -1 -15 -7 -52 -13 -82 -14 -71 -15 -73 -51 -425 -10 -92 -19
-135 -31 -151 -5 -6 -6 -22 -1 -34 5 -12 5 -48 1 -79 -5 -31 -9 -81 -10 -111
-2 -84 13 -314 22 -325 4 -6 15 -42 25 -80 9 -39 21 -74 25 -79 5 -6 9 -18 9
-28 0 -11 9 -38 20 -60 11 -23 20 -47 20 -54 0 -21 25 -33 73 -36 52 -3 57
-10 27 -31 -17 -12 -19 -19 -11 -40 19 -49 129 -53 139 -4 2 8 -3 15 -10 14
-34 -1 -48 4 -48 18 0 9 -9 15 -21 15 -14 0 -19 5 -16 14 14 36 19 86 8 86
-17 0 -13 27 5 34 21 8 44 -11 44 -37 0 -16 3 -18 12 -9 8 8 20 5 47 -16 20
-15 54 -34 76 -41 22 -7 54 -19 70 -26 17 -7 51 -21 78 -30 26 -10 47 -24 47
-31 0 -26 -126 -91 -155 -80 -8 3 -27 1 -42 -5 -17 -6 -28 -6 -32 0 -8 13 -91
26 -91 15 0 -11 20 -42 20 -31 0 11 40 -12 40 -24 0 -5 -12 -14 -27 -19 -16
-6 -38 -16 -50 -22 -13 -6 -26 -9 -29 -6 -3 4 -29 -4 -57 -17 -29 -13 -90 -30
-137 -39 -136 -24 -143 -26 -190 -48 -49 -23 -154 -27 -191 -7 -15 7 -24 7
-33 0 -8 -6 -21 -9 -30 -5 -22 9 -20 -1 6 -26 l22 -20 -30 0 c-16 0 -39 -3
-51 -6 -18 -5 -23 -2 -23 12 0 9 -3 14 -7 11 -3 -4 -16 1 -27 10 -21 18 -21
18 -3 -3 24 -28 21 -35 -8 -24 -16 6 -25 6 -25 0 0 -6 -7 -10 -15 -10 -8 0
-14 5 -13 11 2 6 -5 13 -15 14 -14 3 -16 -1 -12 -16 6 -17 1 -19 -37 -20 -24
0 -53 -2 -65 -3 -13 -2 -23 1 -23 5 0 5 -12 4 -26 -1 -33 -13 -87 -13 -79 0 3
5 24 9 46 8 22 -1 45 5 52 12 10 10 8 12 -8 6 -17 -6 -17 -4 4 18 21 22 23 32
18 77 -4 28 -8 53 -10 55 -2 2 -17 -3 -34 -11 -42 -21 -115 3 -121 40 -1 6
-19 11 -41 13 -22 2 -45 10 -51 18 -16 18 -50 18 -78 -2 -19 -13 -22 -13 -22
-1 0 22 -22 27 -66 16 -22 -6 -50 -13 -64 -15 -14 -3 -35 -7 -48 -10 -23 -5
-62 -36 -126 -100 -61 -61 -77 -82 -64 -86 8 -3 4 -12 -11 -27 -14 -14 -29
-20 -39 -16 -9 4 -42 11 -72 15 -137 22 -145 37 -76 139 53 78 78 102 164 162
147 102 199 117 332 95 47 -8 110 -17 140 -21 30 -3 82 -15 115 -25 118 -37
265 -71 318 -73 9 -1 17 -5 17 -9 0 -5 12 -8 28 -8 15 1 50 -1 77 -4 28 -3 82
-8 122 -10 119 -8 188 -32 176 -62 -3 -10 0 -12 10 -8 9 3 18 12 21 20 8 20
35 18 79 -6 30 -16 42 -18 58 -9 12 6 30 9 40 6 10 -3 17 -1 14 3 -10 16 39
33 87 31 38 -2 49 2 58 19 6 11 15 18 20 15 5 -3 11 -1 15 5 4 6 11 7 17 4 6
-4 9 -3 5 2 -3 5 -31 10 -63 12 -32 2 -66 8 -76 13 -10 6 -26 9 -36 8 -52 -5
-76 3 -106 34 -17 18 -54 41 -82 52 -46 16 -51 21 -53 49 -3 53 -4 56 -11 56
-4 0 -10 24 -13 53 -13 116 -27 198 -42 233 -8 20 -15 51 -16 68 0 17 -9 45
-20 61 -10 17 -23 41 -29 54 -8 19 -13 21 -25 11 -10 -8 -11 -18 -5 -36 5 -13
6 -43 1 -67 -8 -46 -7 -235 2 -277 6 -32 25 -137 30 -172 4 -27 3 -28 -40 -28
-25 0 -71 7 -103 15 -31 8 -100 19 -151 25 -106 11 -167 24 -181 38 -9 9 31
53 157 172 52 48 90 93 105 125 13 28 43 75 65 106 23 31 47 72 54 90 7 19 21
52 31 74 10 22 22 62 26 89 5 34 12 50 24 53 26 7 9 71 -27 102 l-28 24 -9
-31 c-4 -16 -16 -32 -25 -35 -9 -2 -17 -13 -18 -23 -3 -35 -32 -90 -64 -125
-18 -19 -33 -38 -34 -44 -3 -26 -48 -107 -66 -118 -11 -7 -37 -39 -56 -72 -20
-33 -57 -81 -82 -106 -25 -26 -71 -78 -101 -117 -30 -39 -67 -78 -82 -89 -16
-10 -28 -26 -28 -35 0 -22 -8 -22 -101 -2 -104 22 -109 24 -79 38 28 12 86 65
83 75 -1 4 10 7 25 7 20 -1 27 4 27 17 0 11 28 48 63 83 41 41 67 77 74 100 5
21 23 50 39 66 16 16 29 36 29 44 0 8 5 14 10 14 6 0 10 5 10 11 0 18 49 83
72 95 16 9 23 22 23 46 1 19 19 69 39 112 21 43 40 90 42 104 3 15 13 39 23
53 21 28 28 51 65 209 28 121 38 167 41 195 2 11 16 74 33 140 70 277 74 305
45 337 -20 23 -45 23 -65 1 -8 -10 -32 -79 -53 -153 -20 -74 -48 -170 -62
-213 -30 -92 -49 -167 -67 -257 -7 -36 -19 -78 -26 -95 -6 -16 -14 -46 -16
-65 -5 -43 -18 -74 -108 -265 -39 -82 -81 -161 -93 -175 -13 -14 -26 -34 -29
-45 -9 -29 -64 -96 -74 -90 -9 6 -20 -18 -20 -45 0 -10 -8 -21 -18 -24 -10 -3
-23 -20 -29 -37 -11 -29 -14 -30 -29 -18 -16 13 -16 12 -5 -9 11 -21 10 -24
-7 -29 -11 -2 -25 -16 -32 -29 -8 -13 -17 -24 -22 -24 -19 0 -88 -98 -88 -124
0 -15 -39 -24 -132 -31 -40 -3 -82 -17 -150 -50 -89 -43 -96 -50 -156 -129
-34 -46 -62 -88 -62 -94 0 -5 -7 -15 -15 -22 -8 -7 -12 -16 -9 -21 3 -5 0 -9
-5 -9 -6 0 -11 -10 -11 -22 0 -13 -7 -32 -15 -42 -8 -11 -15 -30 -15 -42 0
-13 -5 -26 -10 -29 -12 -7 -70 16 -70 28 0 5 5 5 10 2 6 -3 10 -2 10 4 0 5 3
16 6 25 5 13 2 13 -20 3 -14 -7 -26 -18 -26 -24 0 -16 -3 -16 -34 -2 -14 7
-23 15 -21 19 3 4 -3 7 -13 6 -24 -2 -20 58 7 95 12 15 21 33 21 39 0 5 7 10
15 10 8 0 15 5 15 11 0 6 7 8 16 5 13 -5 15 -2 11 15 -3 11 -3 28 0 37 6 14 7
14 12 -1 6 -15 8 -15 19 3 10 17 10 20 -4 20 -13 0 -14 3 -4 15 7 8 16 12 21
9 10 -6 54 22 54 34 0 12 32 42 44 42 5 0 12 8 15 18 4 10 22 26 41 35 19 9
35 21 35 26 0 10 29 22 44 18 5 -1 12 8 17 20 5 15 14 21 24 17 8 -3 15 -1 15
5 0 6 5 11 11 11 6 0 23 12 38 28 16 15 65 56 109 92 45 36 82 70 82 76 0 6
11 24 25 40 14 16 25 32 25 37 0 4 9 7 20 7 11 0 20 3 20 8 0 4 11 20 25 36
14 16 25 32 25 36 0 7 119 166 145 194 6 6 25 43 43 81 19 39 38 78 43 87 5
10 9 23 9 29 0 6 8 23 18 37 28 40 133 336 158 445 3 15 10 27 15 27 5 0 9 14
9 31 0 49 22 169 31 169 5 0 9 -5 9 -12 0 -9 3 -9 11 -1 12 12 3 37 -10 29
-10 -7 -6 35 7 67 7 16 10 32 8 36 -15 24 115 98 153 88 14 -3 18 -1 14 9 -3
8 1 14 8 14 12 0 78 28 119 52 8 4 26 13 40 19 13 5 30 15 38 21 14 12 166 77
194 83 10 2 28 11 40 19 12 9 30 16 40 16 10 0 18 4 18 10 0 5 7 7 15 4 8 -4
15 -1 15 6 0 6 6 10 13 7 11 -4 67 49 67 64 0 17 95 15 106 -2z m-1391 -979
c13 -5 14 -9 5 -9 -8 0 -24 4 -35 9 -13 5 -14 9 -5 9 8 0 24 -4 35 -9z m-4058
-306 c-3 -3 -12 -4 -19 -1 -8 3 -5 6 6 6 11 1 17 -2 13 -5z m73 -49 c22 -14
40 -22 40 -18 0 4 5 2 12 -5 7 -7 20 -12 29 -12 10 0 21 -5 25 -11 4 -7 0 -9
-14 -5 -29 10 -39 -14 -15 -34 19 -15 19 -19 7 -43 -9 -16 -10 -28 -4 -32 5
-3 10 -15 10 -25 0 -10 8 -25 18 -32 9 -7 23 -24 30 -38 7 -14 44 -58 82 -99
39 -41 70 -77 70 -81 0 -8 81 -90 125 -125 20 -16 43 -36 50 -43 8 -7 20 -11
27 -10 7 2 19 -12 27 -30 9 -20 20 -31 28 -27 8 2 27 -9 43 -25 16 -17 34 -30
40 -30 13 0 41 -25 41 -37 0 -4 6 -7 13 -5 8 1 16 -7 19 -19 3 -12 10 -18 17
-14 6 4 28 -6 48 -22 20 -16 52 -35 70 -42 17 -8 32 -18 32 -23 0 -5 8 -12 18
-15 9 -4 23 -14 30 -22 11 -13 12 -13 7 -1 -4 9 0 7 9 -4 8 -10 19 -16 23 -13
5 3 22 -10 38 -29 26 -31 55 -49 40 -24 -3 6 0 10 8 10 8 0 17 -10 20 -21 5
-18 11 -21 36 -16 17 4 31 2 31 -3 0 -5 9 -12 20 -15 11 -3 20 -13 20 -22 0
-9 6 -13 15 -9 18 7 124 -39 131 -58 3 -7 16 -13 30 -13 14 0 31 -9 39 -19 8
-11 15 -16 15 -11 0 4 17 0 37 -8 20 -9 42 -14 49 -11 7 3 15 -2 18 -10 3 -8
16 -14 28 -14 13 0 33 -7 44 -15 12 -8 24 -11 28 -8 3 3 6 1 6 -6 0 -8 7 -11
15 -7 8 3 15 1 15 -5 0 -7 14 -10 35 -7 19 2 35 1 35 -2 0 -4 33 -14 73 -24
68 -15 99 -20 192 -30 22 -3 73 -10 113 -16 84 -13 213 -16 360 -7 92 6 102 5
103 -11 0 -9 2 -46 5 -82 2 -36 9 -128 14 -205 13 -200 27 -352 39 -425 6 -34
8 -66 6 -70 -9 -15 -149 -25 -445 -34 l-125 -3 -42 46 c-24 25 -43 50 -43 55
0 13 -51 66 -64 66 -6 1 -31 21 -56 45 -25 25 -48 45 -52 45 -5 0 -8 7 -8 15
0 8 -6 15 -14 15 -8 0 -52 22 -97 50 -45 27 -98 53 -118 56 -20 4 -55 15 -79
26 -47 20 -76 24 -52 7 11 -7 -1 -8 -40 -3 -156 19 -527 -34 -638 -92 -15 -8
-33 -14 -40 -14 -8 0 -28 -15 -46 -34 -19 -18 -54 -46 -79 -61 -62 -36 -91
-84 -84 -137 6 -47 18 -58 67 -58 38 0 66 15 115 62 43 40 154 94 209 102 26
4 61 13 79 21 18 7 57 16 87 20 30 3 90 13 133 21 97 17 220 6 325 -31 41 -14
78 -25 84 -25 11 0 76 -50 128 -97 19 -18 40 -33 45 -33 6 0 19 -15 29 -32 11
-18 33 -47 49 -64 17 -18 31 -38 33 -46 1 -7 16 -35 33 -60 56 -83 79 -293 35
-329 -8 -6 -14 -16 -14 -21 0 -20 -62 -99 -90 -113 -35 -18 -58 -19 -128 -3
-52 12 -53 14 -82 75 -17 35 -30 69 -30 77 0 7 -7 19 -15 26 -8 7 -15 19 -15
27 0 47 -70 123 -113 123 -15 0 -32 -28 -28 -45 2 -5 9 -32 16 -60 8 -27 17
-78 21 -112 3 -35 11 -63 16 -63 5 0 6 -5 2 -12 -4 -6 -6 -41 -5 -77 1 -36 -2
-72 -7 -79 -5 -7 -27 -13 -50 -15 -23 -1 -42 -5 -42 -9 0 -3 -17 -4 -37 -1
-21 2 -45 4 -53 3 -8 0 -38 -2 -67 -4 l-51 -3 -10 41 c-6 23 -20 83 -32 135
-25 109 -74 210 -108 222 -20 8 -25 5 -35 -20 l-11 -29 -19 22 -19 21 7 -25
c3 -14 10 -63 15 -110 5 -47 16 -122 23 -167 l13 -82 -42 -10 c-56 -14 -157
-14 -205 1 -68 20 -140 100 -240 268 -9 14 -23 61 -33 105 -21 96 -44 174 -57
197 -5 10 -9 22 -9 28 0 6 -24 35 -54 65 -39 39 -62 55 -81 55 -14 0 -24 -4
-21 -8 3 -5 -22 -4 -54 1 -32 5 -67 6 -77 2 -10 -5 -23 -7 -29 -7 -26 4 -70
-78 -51 -97 20 -20 -5 -11 -32 12 -15 12 -26 28 -23 35 2 8 -10 12 -38 12 -25
0 -39 4 -35 10 4 6 -6 10 -23 10 l-30 0 0 73 c0 39 -5 84 -11 99 -6 15 -13 58
-17 95 -3 38 -10 82 -15 98 -5 17 -10 58 -12 90 -1 33 -6 66 -10 73 -5 6 -5
12 0 12 4 0 9 65 10 144 2 108 7 163 23 222 11 44 27 120 35 169 8 50 25 129
38 177 14 48 22 90 19 93 -3 3 -1 5 5 5 6 0 17 23 23 51 17 70 7 78 -85 69
-38 -4 -74 -3 -79 1 -5 5 -20 -3 -33 -17 -13 -14 -29 -27 -36 -28 -7 -1 -23
-8 -37 -16 -14 -7 -27 -12 -29 -10 -2 2 -16 -8 -30 -21 -14 -13 -23 -19 -19
-15 4 5 0 15 -10 22 -9 7 -12 14 -5 14 11 0 11 13 -1 40 -9 21 -1 77 14 95 7
8 9 15 5 15 -4 0 -3 6 2 13 5 6 10 28 11 47 3 58 13 110 23 116 5 3 9 18 9 34
0 16 5 32 10 35 6 4 8 11 5 16 -4 5 -1 9 5 9 6 0 9 4 5 9 -3 5 1 15 8 23 18
18 47 78 47 97 0 9 24 66 54 128 30 61 53 120 53 130 -2 14 4 18 30 16 25 -2
31 0 27 11 -4 10 3 16 23 19 15 2 31 5 36 6 4 0 25 -10 47 -24z m166 -71 c18
-14 18 -15 -6 -8 -31 8 -50 24 -29 24 8 0 24 -7 35 -16z m584 -113 c0 -5 -11
-8 -25 -7 -33 1 -33 16 0 16 14 0 25 -4 25 -9z m-230 -91 c0 -5 -2 -10 -4 -10
-3 0 -8 5 -11 10 -3 6 -1 10 4 10 6 0 11 -4 11 -10z m3244 -1 c20 -10 29 -9
42 2 16 13 16 12 6 -6 -6 -11 -20 -28 -31 -37 -12 -10 -21 -25 -21 -33 0 -8
-4 -15 -8 -15 -11 0 -50 -29 -86 -65 -35 -34 -80 -65 -96 -65 -16 0 -12 27 5
34 18 7 20 37 3 31 -7 -2 -22 8 -33 23 l-20 27 29 -18 c28 -18 28 -18 21 2 -4
12 -2 21 4 21 6 0 11 -4 11 -10 0 -22 15 -8 16 16 1 14 10 34 20 45 9 10 14
22 11 26 -11 10 35 31 70 32 18 1 43 -4 57 -10z m1531 -19 c4 -6 12 -10 18 -9
23 3 38 -1 33 -9 -2 -4 3 -8 12 -9 53 -4 103 -17 113 -29 6 -8 21 -14 33 -14
55 0 184 -53 266 -109 14 -10 44 -27 67 -39 40 -20 77 -46 94 -67 4 -5 23 -28
41 -50 44 -53 68 -91 68 -109 0 -15 -43 -33 -66 -28 -6 1 -17 -4 -23 -12 -10
-12 -15 -11 -35 9 -32 32 -42 59 -19 51 10 -4 1 8 -19 27 -20 18 -55 39 -77
47 -30 10 -38 16 -31 25 13 15 4 22 -74 60 -32 16 -61 35 -63 42 -3 7 -13 13
-24 13 -10 0 -23 9 -30 21 -7 14 -17 19 -30 16 -10 -3 -22 -1 -25 4 -21 35
-211 90 -226 66 -12 -17 -38 20 -38 54 0 49 19 75 35 49z m-1831 -66 c3 -8 2
-12 -4 -9 -6 3 -10 10 -10 16 0 14 7 11 14 -7z m-51 -18 c4 -11 1 -13 -11 -9
-13 5 -15 4 -6 -8 6 -8 11 -24 12 -37 1 -18 -2 -21 -12 -13 -17 15 -44 4 -58
-23 -10 -19 -8 -19 17 4 25 22 27 23 21 5 -13 -34 -14 -50 -2 -57 14 -9 2 -20
-27 -23 -19 -2 -24 1 -20 14 4 17 4 17 -89 8 -9 -1 -15 -4 -12 -8 6 -10 -44
-40 -69 -42 -12 -1 -33 -11 -46 -24 -14 -12 -28 -20 -32 -17 -4 2 -21 -9 -37
-26 -17 -16 -33 -30 -36 -30 -11 0 -106 -96 -106 -107 0 -5 -14 -29 -31 -53
-60 -83 -92 -175 -66 -193 8 -6 6 -7 -6 -3 -10 3 -23 6 -28 6 -5 0 -8 17 -5
38 3 20 5 37 6 37 1 0 3 22 6 49 3 27 9 57 14 67 6 10 10 26 10 36 0 42 24 97
57 134 19 21 40 39 45 39 6 0 27 13 47 28 20 16 62 41 94 56 31 15 57 31 57
35 0 4 8 7 19 8 10 1 31 13 46 27 21 20 92 52 138 62 4 1 8 2 10 4 1 1 22 7
47 14 25 8 46 14 46 15 1 0 4 -6 7 -13z m90 -13 c-4 -10 -2 -14 5 -9 6 3 13 2
16 -3 4 -5 2 -12 -4 -16 -5 -3 -10 -19 -10 -35 0 -32 -37 -75 -78 -91 -31 -12
-32 -10 -39 42 -5 36 -4 41 10 36 11 -4 25 5 42 26 15 18 33 40 41 50 18 22
25 22 17 0z m-2733 -13 c0 -5 -2 -10 -4 -10 -3 0 -8 5 -11 10 -3 6 -1 10 4 10
6 0 11 -4 11 -10z m4554 -115 c-4 -8 -10 -15 -15 -15 -5 0 -9 7 -9 15 0 8 7
15 15 15 9 0 12 -6 9 -15z m-4384 -15 c0 -5 -2 -10 -4 -10 -3 0 -8 5 -11 10
-3 6 -1 10 4 10 6 0 11 -4 11 -10z m4468 -7 c-5 -25 -22 -26 -49 -4 l-24 20
38 1 c31 0 38 -3 35 -17z m32 -33 c0 -5 -2 -10 -4 -10 -3 0 -8 5 -11 10 -3 6
-1 10 4 10 6 0 11 -4 11 -10z m-4330 -20 c0 -5 -2 -10 -4 -10 -3 0 -8 5 -11
10 -3 6 -1 10 4 10 6 0 11 -4 11 -10z m4430 -11 c0 -14 -45 -18 -58 -5 -10 10
-6 12 23 12 19 -1 35 -4 35 -7z m-4565 -9 c-3 -5 -11 -10 -16 -10 -6 0 -7 5
-4 10 3 6 11 10 16 10 6 0 7 -4 4 -10z m4675 -64 c0 -11 -19 -15 -25 -6 -3 5
1 10 9 10 9 0 16 -2 16 -4z m-2320 -26 c0 -5 -13 -25 -30 -43 -16 -19 -30 -39
-30 -43 0 -5 -23 -36 -50 -69 -28 -33 -48 -66 -45 -74 3 -8 -3 -32 -14 -55
-10 -23 -22 -53 -25 -67 -3 -15 -14 -36 -23 -48 l-18 -22 -60 42 c-62 43 -86
69 -79 81 3 4 12 5 22 2 16 -5 16 -5 0 6 -20 12 -25 36 -6 24 8 -5 9 -2 5 10
-4 10 -7 22 -7 27 0 5 -4 9 -10 9 -5 0 -10 -8 -10 -17 0 -13 -3 -14 -11 -6 -9
9 -8 15 2 25 19 17 39 21 39 7 0 -6 14 1 32 16 23 19 33 23 39 14 6 -10 11
-10 22 -1 7 7 17 9 20 5 4 -3 7 -1 7 5 0 6 20 32 44 59 35 38 89 74 184 122 1
0 2 -3 2 -9z m-2319 -13 c-1 -12 -15 -9 -19 4 -3 6 1 10 8 8 6 -3 11 -8 11
-12z m222 -4 c-10 -30 -14 -34 -24 -27 -6 4 -3 14 7 25 21 24 25 24 17 2z
m127 8 c0 -5 -7 -11 -15 -15 -15 -5 -20 5 -8 17 9 10 23 9 23 -2z m4405 -31
c-11 -4 -25 -1 -32 6 -24 23 -13 33 19 17 28 -14 30 -17 13 -23z m58 -35 c-3
-9 -8 -14 -10 -11 -3 3 -2 9 2 15 9 16 15 13 8 -4z m-2059 -27 c-6 -10 -38
-11 -48 -1 -3 4 4 12 16 19 23 12 43 1 32 -18z m-2464 -13 c0 -8 -7 -15 -15
-15 -9 0 -12 6 -9 15 4 8 10 15 15 15 5 0 9 -7 9 -15z m40 5 c0 -5 -4 -10 -10
-10 -5 0 -10 5 -10 10 0 6 5 10 10 10 6 0 10 -4 10 -10z m4540 0 c13 -8 13
-10 -2 -10 -9 0 -20 5 -23 10 -8 13 5 13 25 0z m-4478 -32 c-7 -7 -12 -8 -12
-2 0 14 12 26 19 19 2 -3 -1 -11 -7 -17z m1968 -8 c-20 -13 -33 -13 -25 0 3 6
14 10 23 10 15 0 15 -2 2 -10z m1625 -72 c17 -16 -49 4 -67 20 -32 27 -19 34
20 11 20 -12 42 -26 47 -31z m-3015 11 c0 -11 -4 -18 -10 -14 -5 3 -7 12 -3
20 7 21 13 19 13 -6z m-600 -5 c0 -8 -5 -12 -10 -9 -6 4 -8 11 -5 16 9 14 15
11 15 -7z m1176 -69 c10 -8 14 -15 7 -15 -19 0 -43 11 -43 21 0 13 14 11 36
-6z m3492 6 c11 -6 9 -15 -7 -45 -11 -20 -23 -51 -26 -69 -10 -61 -62 -157
-85 -157 -12 0 -22 84 -10 88 22 8 9 18 -20 16 -24 -2 -31 3 -36 21 -3 14 -15
25 -27 27 -38 5 -24 32 32 60 58 30 67 29 82 -9 13 -34 31 -18 27 24 -4 45 32
68 70 44z m-4531 -37 c-3 -3 -12 -4 -19 -1 -8 3 -5 6 6 6 11 1 17 -2 13 -5z
m1023 2 c0 -3 -4 -8 -10 -11 -5 -3 -10 -1 -10 4 0 6 5 11 10 11 6 0 10 -2 10
-4z m-21 -57 c-10 -20 -29 -26 -29 -10 0 22 13 39 26 34 10 -4 11 -10 3 -24z
m276 -9 c3 -6 -1 -7 -9 -4 -18 7 -21 14 -7 14 6 0 13 -4 16 -10z m3008 -17 c4
-3 1 -13 -5 -21 -10 -11 -8 -18 8 -31 30 -24 50 -64 35 -69 -12 -4 -15 -35 -4
-46 4 -3 13 4 20 16 l13 23 -2 -25 c-1 -14 1 -31 6 -38 11 -19 -3 -30 -42 -34
-31 -3 -40 -11 -69 -67 -1 -1 -7 0 -13 4 -9 6 -9 9 0 15 7 4 11 13 8 20 -2 8
-14 4 -35 -14 -17 -14 -37 -26 -44 -26 -10 0 -11 2 -2 8 8 5 9 20 3 52 -12 61
-12 60 6 53 9 -3 20 0 24 8 15 23 24 -19 11 -48 -10 -22 -10 -25 4 -19 9 3 21
6 26 6 5 0 8 18 7 40 -1 27 -6 40 -16 40 -8 0 -12 6 -8 15 9 23 -22 18 -34 -6
-11 -19 -13 -19 -29 -5 -25 23 -31 20 -31 -14 0 -34 -15 -40 -23 -9 -4 13 -12
20 -24 17 -14 -2 -18 -13 -19 -46 -1 -34 2 -40 12 -31 8 6 12 15 9 19 -3 5 -1
11 4 14 5 3 12 -6 16 -21 3 -16 12 -31 18 -35 6 -4 8 -10 4 -15 -5 -4 -11 -3
-15 3 -9 14 -70 16 -78 3 -3 -5 -14 -7 -25 -4 -21 7 -25 -5 -7 -23 14 -14 32
-16 23 -3 -6 11 62 27 73 17 13 -13 -15 -40 -54 -50 -24 -7 -43 -20 -49 -34
-5 -12 -16 -22 -23 -22 -7 0 -10 5 -7 10 3 6 1 10 -4 10 -6 0 -11 11 -11 24 0
13 -5 26 -12 28 -7 3 -2 13 13 27 l24 23 -23 -7 c-31 -9 -61 18 -57 51 1 13
-2 24 -6 24 -5 0 -9 -7 -9 -14 0 -19 -50 -3 -75 24 -16 17 -14 19 35 29 27 6
54 10 58 9 4 -1 29 8 56 20 55 25 131 52 146 52 6 0 10 -5 10 -11 0 -6 6 -16
13 -24 19 -18 47 0 47 30 0 14 6 25 13 25 6 0 30 14 51 30 41 31 48 34 59 23z
m-3669 -25 c-3 -4 -11 -5 -19 -1 -21 7 -19 12 4 10 11 0 18 -5 15 -9z m711
-28 c-3 -5 7 -12 22 -16 90 -20 153 -54 153 -83 0 -14 5 -18 19 -14 10 2 74
-10 142 -27 68 -18 151 -38 184 -46 33 -8 67 -16 75 -18 8 -3 17 -5 19 -5 3
-1 -4 -8 -15 -17 -15 -13 -13 -13 10 1 26 16 31 16 65 2 33 -14 111 -31 153
-32 9 0 20 -3 23 -7 7 -7 -56 -58 -72 -58 -5 0 -16 -11 -23 -25 -7 -14 -18
-25 -24 -25 -6 0 -23 -7 -38 -14 -16 -8 -28 -13 -28 -11 0 2 -3 11 -7 20 -5
14 -2 16 13 11 15 -4 20 -1 21 14 2 21 -12 27 -22 9 -8 -12 -67 -2 -78 15 -5
8 -11 6 -20 -5 -17 -22 -82 -51 -104 -47 -14 4 -9 9 20 23 20 10 37 23 37 27
0 5 -5 6 -10 3 -6 -4 -6 4 1 19 8 16 17 22 27 19 11 -5 13 -3 7 6 -4 8 -2 17
6 22 7 4 10 11 6 15 -3 4 -13 2 -20 -4 -8 -7 -17 -9 -20 -6 -3 4 -11 -5 -18
-19 -8 -17 -19 -24 -34 -23 -13 0 -21 4 -18 9 6 9 2 9 -36 -4 -17 -6 -31 -16
-31 -21 0 -6 -7 -4 -17 3 -13 11 -17 11 -20 2 -3 -7 -9 -13 -14 -13 -6 0 -7 5
-4 10 3 6 2 10 -2 10 -5 0 -20 -18 -33 -39 -24 -38 -27 -40 -70 -36 -24 2 -46
8 -48 13 -3 11 50 52 68 52 6 0 8 5 5 11 -4 5 -12 8 -18 6 -7 -2 -18 3 -26 10
-11 12 -10 18 9 38 32 34 23 61 -18 57 -27 -3 -32 0 -32 17 l0 21 -20 -20
c-11 -11 -25 -20 -31 -20 -7 0 -9 -11 -5 -30 5 -26 2 -30 -15 -30 -18 0 -21
-5 -17 -29 2 -17 1 -28 -4 -25 -4 3 -8 0 -8 -5 0 -6 -7 -11 -15 -11 -20 0 -39
74 -25 100 9 16 7 24 -5 36 -13 14 -15 14 -15 0 0 -25 -15 -19 -18 7 -16 137
-13 205 8 192 6 -4 8 -10 5 -15z m-45 -92 c0 -51 5 -117 10 -147 6 -29 9 -55
6 -58 -2 -3 -14 2 -26 10 -17 12 -18 15 -5 20 8 4 15 11 15 17 0 7 -7 7 -21
-1 -36 -19 -46 3 -27 56 10 27 13 45 6 47 -6 2 -5 14 3 32 10 21 10 32 2 46
-7 10 -9 27 -6 39 4 17 8 19 19 10 11 -9 14 -8 14 5 0 9 2 16 5 16 4 0 6 -42
5 -92z m1235 26 c0 -10 6 -18 13 -16 10 2 10 -2 0 -17 -7 -11 -15 -18 -19 -15
-4 2 -9 0 -11 -6 -2 -6 -26 -10 -53 -10 -28 0 -58 0 -67 0 -140 -4 -148 0
-105 48 26 29 63 31 47 3 -14 -28 -13 -41 5 -41 11 0 15 8 13 27 -3 23 2 28
29 34 24 5 33 2 38 -10 5 -13 7 -13 15 -1 5 7 21 15 37 18 15 2 30 5 32 8 10
10 26 -4 26 -22z m1993 -8 c0 -18 -11 -29 -43 -46 -31 -16 -42 -27 -38 -38 4
-10 2 -13 -5 -8 -7 4 -12 3 -12 -1 0 -5 -9 -14 -20 -21 -35 -22 -22 3 26 49
26 24 56 54 68 65 11 12 22 22 22 23 1 1 2 -10 2 -23z m-1918 -22 c0 -21 4
-24 38 -24 26 0 33 3 22 9 -8 6 -17 8 -21 5 -9 -5 -23 15 -16 22 2 3 15 0 28
-5 13 -5 37 -12 53 -16 29 -6 29 -17 -2 -21 -9 0 -21 -2 -27 -4 -5 -1 -27 -2
-47 -1 -27 1 -38 6 -43 21 -4 11 -11 18 -16 15 -5 -4 -9 0 -9 7 0 8 9 14 20
15 15 1 20 -4 20 -23z m700 6 c0 -5 -4 -10 -10 -10 -5 0 -10 5 -10 10 0 6 5
10 10 10 6 0 10 -4 10 -10z m-720 -30 c0 -5 -10 -10 -22 -9 -22 0 -22 1 -3 9
11 5 21 9 23 9 1 1 2 -3 2 -9z m1125 -20 c-4 -6 8 -10 28 -10 37 0 69 -24 45
-33 -10 -5 -9 -9 3 -19 18 -15 41 -76 33 -89 -3 -5 -1 -9 5 -9 20 0 6 -42 -18
-51 -13 -5 -26 -7 -29 -4 -3 2 -12 -3 -21 -13 -16 -18 -109 -45 -123 -36 -5 3
-8 27 -8 54 0 27 -4 52 -10 55 -9 5 -17 30 -36 108 -6 24 -4 28 12 26 11 -1
27 1 37 6 9 4 23 5 31 2 8 -3 22 1 33 8 22 17 26 18 18 5z m-199 -67 c-2 -21
0 -42 4 -48 5 -5 2 -27 -5 -47 -7 -21 -10 -48 -8 -62 4 -20 1 -25 -16 -23 -12
1 -21 5 -21 9 0 3 -9 6 -20 5 -27 -2 -25 -5 13 -21 17 -8 27 -15 20 -15 -7 -1
-10 -7 -7 -15 4 -10 -6 -18 -33 -25 -46 -13 -53 -13 -53 -2 0 5 9 11 21 14 22
6 21 20 -2 75 -27 66 -32 72 -46 60 -11 -9 -17 -9 -24 3 -12 19 -11 29 1 29 6
0 10 5 10 11 0 5 -4 8 -9 4 -5 -3 -12 -1 -16 5 -3 5 -1 10 5 10 7 0 9 7 6 15
-3 10 1 18 12 21 9 3 26 10 37 15 11 5 43 10 70 12 28 2 54 4 58 5 4 1 6 -15
3 -35z m-258 -61 c2 -37 -1 -57 -12 -68 -10 -10 -13 -25 -9 -44 3 -19 1 -30
-6 -30 -6 0 -11 -15 -12 -32 0 -27 -4 -21 -20 32 -10 36 -22 86 -25 111 -6 42
-4 48 22 68 43 34 58 25 62 -37z m-5098 26 c0 -19 -2 -20 -10 -8 -13 19 -13
30 0 30 6 0 10 -10 10 -22z m4951 6 c21 -13 15 -158 -7 -150 -17 7 -18 -6 -1
-23 6 -6 12 -15 13 -19 0 -4 4 -15 8 -24 10 -23 1 -48 -18 -48 -9 0 -16 16
-21 49 -4 27 -13 58 -22 68 -13 16 -14 16 -9 1 3 -10 9 -25 13 -34 4 -11 2
-15 -6 -13 -7 3 -12 8 -11 13 1 5 -2 12 -7 15 -22 16 -32 50 -23 80 5 17 6 31
2 31 -3 0 -1 5 6 12 15 15 16 32 2 23 -5 -3 -10 -1 -10 5 0 23 61 33 91 14z
m-116 -38 c-25 -81 -26 -111 -4 -158 12 -27 26 -48 31 -48 17 0 7 -28 -12 -33
-11 -3 -20 -1 -20 3 0 5 -9 12 -20 15 -11 3 -20 12 -20 19 0 6 -5 17 -12 24
-6 6 -13 24 -15 39 -21 165 -22 156 7 163 14 3 35 4 48 2 19 -4 22 -9 17 -26z
m-165 5 c-15 -28 -32 -37 -28 -15 2 16 17 29 36 33 1 1 -2 -8 -8 -18z m-593 3
c-3 -3 -12 -4 -19 -1 -8 3 -5 6 6 6 11 1 17 -2 13 -5z m-4082 -14 c3 -6 -1 -7
-9 -4 -18 7 -21 14 -7 14 6 0 13 -4 16 -10z m4226 -1 c-16 -6 -28 -6 -35 1 -7
7 1 10 25 9 32 0 33 -1 10 -10z m359 1 c0 -5 -4 -10 -10 -10 -5 0 -10 5 -10
10 0 6 5 10 10 10 6 0 10 -4 10 -10z m-339 -24 l64 7 -27 -22 c-14 -11 -38
-45 -52 -73 -25 -50 -68 -98 -88 -98 -5 0 -6 -4 -3 -10 3 -5 0 -7 -8 -4 -7 2
-26 0 -42 -6 l-28 -11 6 40 c3 29 1 41 -9 45 -22 8 -32 47 -22 78 8 23 21 31
71 47 37 11 64 15 68 9 4 -5 32 -6 70 -2z m451 -37 c-4 -43 -31 -93 -33 -59 0
8 -2 31 -4 50 -3 37 10 63 29 57 6 -2 10 -22 8 -48z m-4692 11 c0 -52 -23
-171 -31 -158 -5 7 -9 24 -9 38 0 20 2 22 10 10 8 -11 10 -6 8 20 -4 68 2 121
12 115 6 -3 10 -15 10 -25z m4495 -45 c1 -38 4 -82 8 -96 5 -19 2 -31 -13 -44
-26 -23 -33 -15 -34 37 -1 53 -30 67 -39 18 -4 -18 -13 -30 -22 -30 -11 0 -14
-6 -11 -18 5 -15 -1 -17 -39 -17 -25 0 -44 4 -42 10 2 6 16 8 31 7 21 -3 26 0
20 9 -13 21 -11 59 3 59 16 0 17 16 2 26 -8 4 -7 9 2 15 7 4 13 20 14 36 0 19
7 31 23 38 12 5 22 13 22 18 0 5 17 7 38 5 l37 -3 0 -70z m232 53 c-3 -8 -6
-5 -6 6 -1 11 2 17 5 13 3 -3 4 -12 1 -19z m-87 -23 c0 -3 -5 -3 -10 0 -13 8
-42 -14 -35 -25 3 -5 1 -11 -5 -15 -22 -13 -20 24 2 47 18 18 26 20 36 11 6
-6 12 -14 12 -18z m575 15 c3 -5 1 -10 -4 -10 -6 0 -11 5 -11 10 0 6 2 10 4
10 3 0 8 -4 11 -10z m-30 -20 c3 -5 1 -10 -4 -10 -6 0 -11 5 -11 10 0 6 2 10
4 10 3 0 8 -4 11 -10z m-1546 -39 c11 -7 10 -13 -8 -32 -26 -29 -50 -14 -32
20 13 23 19 25 40 12z m191 -8 c0 -5 -8 -18 -18 -29 -20 -25 -54 -35 -73 -23
-11 8 -10 12 5 24 11 8 28 15 37 15 10 0 21 5 24 10 7 12 25 13 25 3z m720
-13 c0 -5 -4 -10 -10 -10 -5 0 -10 5 -10 10 0 6 5 10 10 10 6 0 10 -4 10 -10z
m-656 -36 c3 -8 2 -12 -4 -9 -6 3 -10 -3 -10 -14 0 -17 -6 -21 -32 -21 l-32 0
29 30 c33 34 40 36 49 14z m2440 -19 c10 -51 6 -401 -5 -460 -11 -61 -92 -187
-114 -178 -8 3 -15 9 -15 15 0 5 -7 16 -15 24 -8 8 -12 21 -9 29 6 14 -25 14
-89 0 -50 -10 -95 37 -66 71 6 8 13 22 14 32 4 40 18 99 30 122 37 71 40 112
16 173 -11 29 -38 36 -59 15 -9 -9 -12 -9 -12 0 0 21 -18 13 -24 -12 -8 -33
-32 -39 -56 -14 -19 21 -20 21 -20 2 0 -11 -7 -29 -15 -40 -35 -46 4 -105 72
-110 21 -2 41 -3 45 -3 9 -1 -19 -56 -37 -71 -8 -7 -21 -10 -30 -7 -8 4 -17 2
-20 -3 -12 -19 -25 -9 -25 18 0 29 -40 78 -53 65 -13 -13 -7 -61 10 -74 11 -9
14 -10 9 -2 -4 8 -2 11 6 8 15 -6 18 -48 5 -61 -4 -5 -5 -1 -2 8 6 15 -22 35
-33 23 -10 -10 32 -46 47 -40 13 5 14 4 4 -6 -16 -16 -17 -60 -1 -94 9 -21 9
-31 0 -46 -7 -10 -12 -26 -12 -34 0 -21 -51 -40 -61 -23 -6 10 -13 7 -30 -11
-16 -16 -29 -22 -50 -19 -23 4 -29 1 -29 -13 0 -15 -7 -17 -51 -12 -32 3 -49
2 -46 -4 10 -16 -35 -46 -82 -55 -24 -4 -52 -14 -60 -22 -9 -7 -21 -12 -27 -9
-6 2 -42 -4 -80 -12 -38 -9 -85 -17 -104 -19 -19 -2 -57 -7 -85 -11 -27 -4
-60 -7 -72 -7 -13 0 -23 -3 -23 -7 0 -3 -12 -7 -27 -8 -16 -1 -62 -7 -103 -12
-119 -17 -581 -25 -700 -12 -198 21 -325 39 -355 51 -16 7 -57 18 -90 25 -33
8 -94 21 -135 29 -104 23 -120 31 -120 60 0 14 -5 28 -12 32 -8 5 -9 0 -6 -14
7 -27 11 -27 -76 -1 -39 12 -75 22 -81 24 -5 1 -23 7 -38 13 -16 7 -36 12 -46
12 -20 0 -131 78 -131 92 0 5 -9 6 -20 3 -12 -4 -20 -2 -20 5 0 6 -3 9 -7 7
-5 -3 -8 20 -8 51 -1 32 -4 109 -8 172 -5 63 -10 148 -12 187 l-4 73 32 -14
c18 -8 61 -27 97 -44 36 -16 117 -44 180 -61 157 -44 147 -39 122 -57 -12 -8
-22 -21 -22 -29 0 -23 20 -28 40 -10 15 14 30 16 67 11 27 -4 68 -8 92 -11 24
-2 60 -6 80 -9 105 -17 336 -40 401 -40 41 0 126 3 189 8 67 5 112 5 110 0 -2
-5 -11 -26 -19 -46 -8 -21 -19 -38 -25 -38 -5 0 -19 -13 -29 -29 -23 -34 -58
-56 -103 -64 -31 -6 -34 -4 -59 45 -14 28 -32 58 -40 66 -8 7 -14 20 -14 29 0
13 -3 13 -15 3 -8 -7 -15 -22 -15 -34 0 -12 -9 -27 -20 -34 -21 -13 -28 -42
-10 -42 6 0 10 -13 10 -28 0 -15 4 -32 9 -37 13 -14 18 -94 6 -99 -5 -2 -2 -5
7 -5 12 -1 15 -6 11 -18 -4 -10 -2 -14 4 -10 16 10 35 -19 28 -43 -4 -14 -2
-20 6 -18 7 2 15 -8 18 -23 9 -38 42 -75 81 -87 84 -27 255 -16 209 14 -9 6 7
11 51 16 89 10 90 10 90 20 0 4 9 8 20 8 11 0 23 6 26 13 2 7 27 26 54 42 28
16 50 33 50 37 0 4 36 25 80 47 44 22 80 38 80 35 0 -6 -35 -38 -86 -79 -21
-16 -50 -42 -64 -58 -15 -15 -40 -29 -58 -31 -39 -5 -54 -14 -46 -27 3 -6 25
-7 52 -3 61 9 154 43 147 54 -3 5 -1 11 5 15 5 3 10 1 10 -6 0 -12 14 -4 16 9
0 4 6 21 14 37 35 81 40 95 40 114 0 25 -59 92 -106 122 -19 11 -34 27 -34 35
0 25 30 74 45 74 20 0 85 32 85 42 0 5 12 8 28 7 56 -3 178 12 225 27 29 10
64 14 85 11 21 -3 64 0 97 8 33 7 100 23 150 34 49 12 98 24 109 27 15 5 18 3
12 -12 -4 -10 -1 -21 6 -26 10 -6 10 -10 1 -16 -7 -4 -16 -28 -19 -53 -5 -39
-3 -49 17 -71 24 -27 78 -51 65 -29 -4 6 0 21 8 33 17 23 12 123 -6 146 -7 8
-7 17 2 26 15 19 86 52 130 61 19 4 41 11 50 16 40 21 83 38 110 44 16 4 30
10 30 15 0 5 12 11 28 15 15 4 63 26 107 49 101 55 111 55 119 11z m-2484 21
c0 -3 -4 -8 -10 -11 -5 -3 -10 -1 -10 4 0 6 5 11 10 11 6 0 10 -2 10 -4z m871
-60 c-30 -30 -48 -9 -30 34 l14 31 18 -22 c17 -22 17 -23 -2 -43z m-135 19 c0
-14 -6 -27 -12 -29 -15 -6 -25 42 -10 48 21 8 24 6 22 -19z m-791 -115 c3 -5
1 -10 -4 -10 -6 0 -11 5 -11 10 0 6 2 10 4 10 3 0 8 -4 11 -10z m108 -23 c3
-8 -3 -13 -14 -13 -22 0 -25 12 -6 19 6 3 13 6 13 6 1 1 4 -5 7 -12z m847 -33
c0 -8 5 -14 11 -14 5 0 7 5 4 10 -3 6 -3 15 0 20 7 11 65 -18 65 -32 0 -4 6
-5 14 -2 8 3 17 0 22 -7 4 -8 3 -10 -5 -5 -6 4 -17 3 -24 -2 -13 -11 -42 -15
-100 -13 -36 1 -37 2 -31 29 4 15 9 30 11 34 6 12 33 -3 33 -18z m-262 4 c-2
-8 6 -12 20 -10 14 2 22 -2 22 -11 0 -11 -20 -14 -96 -14 -83 -1 -95 1 -92 16
3 13 15 16 61 16 31 0 57 3 57 8 0 4 7 7 15 7 8 0 14 -6 13 -12z m432 2 c0 -5
-4 -10 -10 -10 -5 0 -10 5 -10 10 0 6 5 10 10 10 6 0 10 -4 10 -10z m-423 -59
c42 -11 9 -34 -54 -39 -46 -3 -63 0 -76 13 -9 9 -17 21 -17 26 0 10 108 10
147 0z m288 -26 c28 -1 65 -3 83 -4 45 -1 34 -14 -38 -41 -66 -25 -152 -94
-143 -116 3 -9 13 -12 25 -8 17 5 18 3 9 -14 -6 -12 -11 -27 -11 -34 0 -19 37
-20 44 -2 3 8 10 14 16 14 6 0 4 -7 -4 -16 -9 -8 -16 -26 -16 -39 0 -20 4 -23
30 -20 18 3 28 0 25 -5 -4 -6 -1 -10 5 -10 21 0 4 -25 -19 -26 -12 -1 -30 -9
-40 -18 -24 -22 -155 -86 -175 -86 -9 0 -26 -5 -39 -12 -65 -34 -69 -34 -60
-11 4 11 3 14 -5 9 -7 -4 -12 -15 -12 -24 -1 -15 -2 -15 -15 2 -13 17 -15 18
-15 3 0 -9 -4 -17 -10 -17 -5 0 -10 5 -10 11 0 6 -9 8 -21 4 -31 -10 -59 21
-59 66 0 49 8 69 26 62 8 -3 21 0 29 7 8 6 19 9 25 5 5 -3 10 0 10 7 0 18 48
68 65 68 8 0 15 5 15 11 0 6 -7 8 -16 5 -14 -5 -15 -4 -4 9 7 8 16 13 20 10 5
-3 11 4 15 15 3 11 15 20 26 20 21 0 27 19 7 21 -10 0 -10 2 0 6 6 2 12 18 12
34 0 24 4 29 24 29 27 0 41 14 50 53 3 15 13 27 21 27 8 0 15 5 15 11 0 7 11
9 33 4 17 -4 55 -8 82 -10z m-1145 -5 c0 -5 -4 -10 -9 -10 -6 0 -13 5 -16 10
-3 6 1 10 9 10 9 0 16 -4 16 -10z m2117 -92 c-3 -8 -6 -5 -6 6 -1 11 2 17 5
13 3 -3 4 -12 1 -19z m251 -82 c3 -12 -1 -17 -10 -14 -7 3 -15 13 -16 22 -3
12 1 17 10 14 7 -3 15 -13 16 -22z m2507 -55 c10 -1 -2 -18 -32 -46 -25 -25
-43 -45 -38 -45 5 0 -1 -7 -13 -16 -12 -8 -20 -20 -17 -25 4 -5 1 -9 -5 -9 -6
0 -8 -4 -5 -10 3 -5 1 -10 -6 -10 -7 0 -10 -2 -7 -5 9 -10 -119 -132 -174
-166 -110 -68 -128 -81 -128 -93 0 -14 -21 -27 -150 -92 -58 -29 -132 -60
-165 -69 -66 -19 -94 -30 -172 -69 -80 -40 -159 -64 -260 -80 -51 -8 -100 -19
-110 -24 -10 -5 -36 -12 -58 -16 -54 -9 -155 -46 -155 -57 0 -5 -6 -9 -13 -9
-6 0 -48 -18 -92 -39 -44 -21 -119 -49 -165 -61 -47 -12 -103 -32 -126 -44
-22 -13 -74 -33 -115 -45 -41 -13 -87 -30 -104 -39 -97 -51 -125 -61 -260 -94
-108 -25 -145 -30 -350 -39 -121 -5 -258 -17 -305 -26 -113 -22 -1059 -30
-1410 -13 -329 16 -625 17 -753 1 -98 -12 -114 -11 -180 5 -74 19 -249 23
-677 14 -85 -1 -256 5 -380 15 -188 14 -253 15 -400 6 -271 -17 -559 -19 -568
-4 -8 13 -43 22 -253 67 -155 33 -252 71 -273 108 -10 15 -14 33 -11 38 3 6
-1 10 -9 10 -14 0 -20 12 -17 32 0 5 -6 8 -15 8 -8 0 -12 4 -9 10 3 5 -1 10
-9 10 -9 0 -16 7 -16 15 0 8 -7 15 -15 15 -8 0 -15 6 -15 14 0 21 -107 63
-199 76 -47 7 -96 19 -110 26 -14 8 -33 14 -42 14 -9 0 -53 22 -98 50 -45 28
-87 50 -92 50 -5 0 -9 4 -9 9 0 5 -14 12 -30 16 -17 4 -30 11 -30 16 0 5 -11
11 -25 15 -14 3 -25 9 -25 14 0 4 -18 15 -40 25 -22 10 -40 21 -40 25 0 14
-269 120 -305 120 -7 0 -39 14 -71 32 -32 17 -91 48 -131 68 -40 21 -69 40
-66 44 4 3 -1 6 -10 6 -10 0 -17 7 -17 15 0 8 -4 15 -8 15 -4 0 -32 15 -61 34
l-53 35 37 7 c39 7 827 -4 835 -12 2 -3 -2 -9 -9 -13 -10 -6 -5 -11 18 -16 17
-4 29 -10 26 -14 -19 -32 504 -24 524 7 3 5 35 3 71 -4 65 -14 100 -38 100
-71 0 -8 9 -27 19 -42 11 -14 24 -53 30 -85 6 -33 17 -66 25 -75 7 -9 14 -23
14 -31 1 -36 39 -157 55 -177 5 -7 6 -13 3 -13 -6 0 17 -33 64 -94 8 -10 23
-26 32 -34 9 -9 15 -19 12 -24 -3 -5 -2 -8 3 -7 21 4 31 -4 48 -35 11 -19 23
-32 28 -29 5 3 13 -1 18 -8 4 -8 12 -14 16 -15 4 0 28 -6 52 -13 67 -19 251 0
287 30 10 8 20 14 23 13 3 0 24 7 46 17 36 16 40 17 51 1 6 -9 14 -27 18 -39
4 -11 17 -24 29 -27 32 -8 341 4 347 13 3 5 16 12 30 16 35 10 58 32 96 91
l33 52 109 -1 c85 0 118 4 155 19 26 10 47 25 47 32 0 6 5 12 10 12 6 0 37 26
69 59 63 62 69 79 77 200 7 112 6 158 -6 199 -15 48 -1 79 28 63 9 -5 25 -5
36 -1 12 4 43 4 71 0 27 -4 56 -5 63 -3 7 3 12 2 10 -3 -2 -5 2 -9 7 -9 6 0 9
3 8 6 -4 11 36 18 43 8 3 -5 13 -5 25 2 11 5 37 12 57 14 20 2 69 9 107 15 92
14 114 9 189 -45 35 -25 68 -45 74 -45 12 0 24 -29 16 -41 -3 -5 -11 -9 -18
-9 -7 0 -20 -8 -29 -18 -18 -20 -13 -84 9 -110 68 -84 83 -107 68 -110 -26 -6
-84 28 -105 61 -11 19 -18 48 -18 72 3 61 -10 103 -32 110 -10 4 -19 13 -19
21 0 8 -11 26 -24 41 -32 34 -110 41 -145 12 -13 -11 -21 -23 -17 -27 4 -4 12
1 17 10 7 12 21 16 57 14 55 -3 92 -23 92 -51 0 -11 9 -26 20 -33 25 -15 26
-40 3 -58 -17 -13 -17 -13 -1 -14 11 0 20 -11 24 -27 3 -16 12 -45 20 -66 8
-21 12 -42 9 -47 -2 -4 2 -13 10 -20 8 -7 15 -18 15 -24 0 -6 27 -40 60 -76
33 -36 60 -70 60 -76 0 -6 18 -24 40 -39 22 -15 40 -32 40 -36 0 -5 7 -9 15
-9 8 0 15 -4 15 -9 0 -6 18 -21 40 -34 22 -13 37 -27 33 -30 -3 -4 3 -7 14 -7
11 0 33 -11 49 -25 16 -14 51 -37 79 -51 27 -14 52 -29 55 -33 22 -32 186 -91
211 -76 5 3 18 1 29 -5 11 -6 94 -17 183 -25 89 -8 209 -19 267 -24 257 -25
769 -20 778 8 2 6 8 9 13 6 20 -13 190 28 307 74 28 11 52 18 52 15 0 -3 7 2
16 10 18 18 30 20 39 6 4 -6 20 0 39 15 18 14 40 25 48 25 8 0 25 9 38 20 13
11 31 20 41 20 20 0 103 37 139 63 13 9 34 17 47 17 12 0 25 5 28 10 3 6 14
10 23 10 9 0 47 16 85 35 37 19 67 32 67 28 0 -3 9 6 21 21 11 14 27 26 35 26
8 0 14 3 14 8 0 4 20 29 45 56 68 74 85 117 86 217 1 46 4 95 8 109 4 14 -1
55 -13 98 -20 74 -20 75 0 89 34 25 61 50 78 74 12 16 20 20 23 12 3 -7 11
-13 19 -13 19 0 18 -16 -1 -24 -8 -3 -15 -14 -15 -24 0 -17 4 -18 54 -9 44 8
61 7 89 -6 19 -10 40 -17 47 -17 6 0 25 -8 43 -17 18 -10 48 -23 67 -29 19 -6
34 -15 33 -20 -1 -5 13 -10 30 -10 18 -1 61 -7 96 -12 44 -8 70 -8 83 -1 11 6
29 9 41 8 34 -4 147 12 147 20 0 10 31 8 48 -3 7 -4 19 -5 27 -2 8 3 15 1 15
-3 0 -12 -30 -22 -42 -15 -6 4 -9 1 -6 -7 6 -18 72 -19 105 -2 13 7 25 12 26
11 5 -1 94 24 120 34 29 11 66 19 105 21 12 1 22 5 22 9 0 3 28 8 63 11 34 2
80 10 102 17 22 7 100 16 174 22 90 6 147 15 173 27 21 9 35 20 32 24 -4 4 2
10 12 14 10 4 25 13 32 20 7 7 29 13 47 13 19 0 37 5 40 10 4 6 10 8 14 6 4
-3 26 0 50 5 23 5 70 12 103 14 34 3 63 6 64 8 2 2 45 1 79 -2z m-2575 -117
c0 -6 -7 -11 -15 -11 -10 0 -14 6 -10 14 3 8 5 20 5 26 0 15 20 -14 20 -29z
m-3273 -76 c-3 -8 -6 -5 -6 6 -1 11 2 17 5 13 3 -3 4 -12 1 -19z m4568 -38 c3
-5 -1 -10 -10 -10 -9 0 -13 5 -10 10 3 6 8 10 10 10 2 0 7 -4 10 -10z m-1149
-62 c4 -7 4 -10 -1 -6 -4 4 -13 1 -19 -7 -6 -8 -26 -16 -43 -17 -18 -1 -33 -6
-33 -10 0 -4 -9 -8 -20 -8 -52 0 6 46 66 53 21 2 40 4 41 5 1 1 5 -4 9 -10z
m-1796 -18 c0 -5 -2 -10 -4 -10 -3 0 -8 5 -11 10 -3 6 -1 10 4 10 6 0 11 -4
11 -10z m1645 -30 c6 -10 -62 -44 -112 -55 -21 -4 -33 -3 -33 4 0 6 7 11 15
11 8 0 29 8 47 18 18 10 39 17 46 15 6 -3 12 0 12 6 0 14 17 14 25 1z m-8 -72
c-3 -8 -6 -5 -6 6 -1 11 2 17 5 13 3 -3 4 -12 1 -19z m-140 -5 c-3 -2 -15 -6
-28 -8 -33 -6 -109 -22 -139 -30 -25 -5 -25 -5 -2 5 13 5 21 14 18 19 -4 5 20
12 51 16 32 4 63 8 68 9 12 4 37 -5 32 -11z m273 7 c0 -13 -34 -30 -59 -30
-28 0 -27 14 2 28 28 14 57 15 57 2z m-2525 -20 c3 -6 -1 -7 -9 -4 -18 7 -21
14 -7 14 6 0 13 -4 16 -10z m-200 -10 c3 -6 -1 -7 -9 -4 -18 7 -21 14 -7 14 6
0 13 -4 16 -10z m247 -9 c64 -26 63 -25 111 -30 20 -1 23 -31 3 -31 -8 0 -18
5 -21 10 -4 6 -11 8 -16 4 -17 -10 -69 7 -69 22 0 11 -6 13 -20 9 -14 -5 -20
-2 -20 9 0 19 2 19 32 7z m2006 -3 c-6 -18 -28 -21 -28 -4 0 9 7 16 16 16 9 0
14 -5 12 -12z m-48 -13 c-1 -6 -10 -13 -21 -17 -13 -5 -19 -3 -19 8 0 8 5 12
10 9 6 -3 10 -1 10 5 0 7 5 10 11 8 6 -2 10 -8 9 -13z m427 -4 c-6 -26 23 -38
40 -16 6 10 16 14 22 11 5 -4 12 -2 16 4 9 15 35 12 35 -3 0 -23 -43 -38 -115
-42 -39 -2 -82 -6 -97 -10 -22 -6 -28 -4 -28 9 0 11 -5 14 -12 10 -7 -4 -8 -3
-4 4 5 9 13 9 26 2 23 -12 33 -13 26 -1 -5 8 12 16 52 26 6 2 12 -2 12 -8 0
-7 4 -6 9 3 6 8 7 18 5 22 -3 4 0 8 7 8 6 0 9 -8 6 -19z m28 9 c3 -5 1 -10 -4
-10 -6 0 -11 5 -11 10 0 6 2 10 4 10 3 0 8 -4 11 -10z m-505 -38 c0 -10 -6
-19 -12 -20 -56 -6 -106 -16 -121 -24 -19 -10 -94 -20 -136 -19 -13 1 -29 -3
-35 -8 -6 -4 -24 -11 -39 -13 -23 -4 -27 -2 -22 10 4 12 0 11 -16 -4 -20 -18
-37 -19 -368 -17 -190 2 -357 5 -371 7 -14 2 -42 4 -62 5 -21 0 -38 5 -38 11
0 6 27 8 68 5 147 -10 626 -2 682 10 19 5 51 9 70 10 19 1 55 5 80 9 25 4 72
9 105 11 33 2 80 9 105 15 25 6 53 12 63 13 9 1 17 5 17 9 0 4 7 8 15 8 8 0
15 -8 15 -18z m179 15 c-2 -1 -13 -9 -24 -17 -19 -14 -19 -14 -6 3 7 9 18 17
24 17 6 0 8 -1 6 -3z m-1861 -26 c42 -9 60 -18 51 -24 -2 -2 -32 1 -66 6 -45
6 -63 13 -63 24 0 9 6 12 18 9 9 -3 36 -10 60 -15z m1792 7 c0 -6 -3 -8 -7 -5
-3 4 -12 -1 -19 -11 -12 -15 -13 -15 -14 -1 0 9 3 19 7 22 11 11 33 8 33 -5z
m-2195 -58 c-3 -5 -17 2 -30 16 -34 34 -31 40 5 14 17 -12 28 -25 25 -30z
m587 28 c10 0 20 -3 23 -7 2 -5 19 -7 37 -5 18 2 40 1 48 -3 8 -3 33 -7 55 -8
77 -4 85 -5 85 -14 0 -5 -12 -8 -27 -6 -16 2 -71 7 -123 10 -52 3 -117 10
-145 16 -27 5 -56 10 -62 11 -7 1 -13 5 -13 10 0 4 24 5 53 1 28 -3 60 -6 69
-5z m1758 -9 c0 -5 -9 -9 -20 -9 -11 0 -20 -5 -20 -11 0 -5 -4 -8 -9 -4 -5 3
-13 0 -17 -6 -3 -6 0 -15 7 -20 10 -6 6 -9 -13 -9 -47 0 -28 40 25 54 15 3 27
11 27 17 0 6 5 7 10 4 6 -3 10 -10 10 -16z m-2269 -6 c13 -16 12 -17 -3 -4
-10 7 -18 15 -18 17 0 8 8 3 21 -13z m97 -28 c17 -9 39 -18 49 -20 10 -2 45
-13 77 -24 33 -12 67 -21 76 -21 9 0 29 -11 44 -25 33 -30 16 -32 -44 -3 -25
11 -54 23 -64 25 -10 2 -39 12 -63 23 -25 11 -49 17 -54 14 -12 -7 -69 27 -63
38 7 10 6 11 42 -7z m47 -55 c3 -5 -1 -10 -9 -10 -9 0 -16 5 -16 10 0 6 4 10
9 10 6 0 13 -4 16 -10z m-270 -30 c4 -6 30 -22 58 -37 29 -14 70 -41 93 -59
23 -19 48 -34 56 -34 7 0 18 -4 24 -9 5 -5 43 -19 84 -31 41 -12 80 -25 85
-28 6 -4 20 -8 31 -9 12 -2 43 -15 69 -28 31 -17 51 -22 59 -16 7 6 16 3 25
-7 13 -14 6 -15 -80 -9 -122 8 -181 26 -309 95 -121 64 -257 182 -211 182 6 0
13 -5 16 -10z m509 -12 c9 -12 14 -24 12 -26 -5 -4 -46 35 -46 43 0 13 20 3
34 -17z m1513 16 c-3 -3 -12 -4 -19 -1 -8 3 -5 6 6 6 11 1 17 -2 13 -5z m443
-3 c0 -5 -8 -12 -17 -16 -16 -6 -30 -9 -98 -20 -11 -2 -30 -6 -42 -10 -12 -4
-25 -6 -29 -5 -4 1 -10 -3 -13 -8 -8 -13 -55 -19 -61 -8 -7 12 17 23 80 35 52
10 172 37 178 40 1 0 2 -3 2 -8z m37 3 c-3 -3 -12 -4 -19 -1 -8 3 -5 6 6 6 11
1 17 -2 13 -5z m-1938 -13 c7 -5 9 -11 5 -14 -5 -3 -15 1 -22 9 -14 16 -5 18
17 5z m118 -27 c12 -8 40 -14 61 -14 21 0 42 -3 46 -7 4 -4 23 -6 42 -4 18 1
34 -1 34 -6 0 -4 37 -8 83 -8 45 0 98 -3 117 -7 51 -10 254 -19 409 -19 98 0
137 4 143 13 7 12 12 4 9 -14 0 -5 6 -8 14 -8 8 0 15 4 15 9 0 4 12 7 28 5 55
-7 109 -7 120 0 6 3 14 1 17 -4 5 -7 12 -5 22 7 8 10 11 11 7 3 -7 -13 -5 -13
9 -1 9 7 23 11 32 8 8 -4 17 -2 19 2 6 10 52 20 111 26 38 4 37 4 -15 -13 -50
-17 -53 -19 -28 -25 28 -7 88 1 88 12 0 4 14 8 31 9 18 1 37 6 43 9 21 13 46
10 46 -7 0 -11 -23 -23 -76 -41 -64 -22 -91 -25 -168 -23 -151 5 -215 4 -238
-5 -13 -5 -32 -5 -43 -1 -11 4 -56 3 -100 -1 -92 -10 -516 -3 -524 9 -4 4 -17
8 -31 9 -169 10 -340 45 -340 69 0 8 -5 14 -11 14 -6 0 -9 -7 -5 -15 6 -17 0
-18 -29 -5 -14 6 -15 9 -5 10 10 0 7 5 -8 13 -22 12 -21 13 15 14 21 1 48 -5
60 -13z m-122 -144 c-3 -5 -1 -10 6 -10 7 0 10 -3 6 -6 -9 -9 -28 6 -22 17 4
5 8 9 11 9 3 0 2 -4 -1 -10z m112 -33 c-1 -5 -6 -8 -10 -8 -4 1 -14 1 -22 1
-8 0 -15 4 -15 9 0 5 11 8 25 7 14 0 24 -5 22 -9z m43 -8 c0 -6 -4 -7 -10 -4
-5 3 -10 11 -10 16 0 6 5 7 10 4 6 -3 10 -11 10 -16z m-54 -44 c22 -3 73 -7
114 -10 41 -3 100 -7 130 -10 110 -9 205 -18 224 -19 11 0 21 -7 24 -13 5 -16
-105 -17 -228 -3 -47 6 -114 13 -150 16 -36 3 -72 8 -80 11 -8 3 -26 7 -39 9
-35 4 -51 12 -51 24 0 6 4 9 9 6 5 -3 26 -8 47 -11z m578 -43 c2 -4 84 -8 180
-7 166 0 207 -5 152 -19 -35 -9 -253 -9 -319 -1 -47 6 -55 10 -46 21 13 16 25
18 33 6z m531 -7 c-24 -8 -125 -11 -125 -3 0 4 30 8 68 7 37 0 63 -2 57 -4z
m-3297 -272 c-26 -2 -71 -2 -100 0 -29 2 -8 3 47 3 55 0 79 -1 53 -3z"/>
<path d="M1295 8766 c-37 -14 -85 -46 -85 -56 0 -12 63 -75 83 -83 9 -3 17
-11 17 -16 0 -5 10 -13 22 -17 23 -7 88 -70 88 -85 0 -5 3 -8 8 -7 12 3 82
-33 82 -43 0 -5 6 -9 14 -9 8 0 16 -4 18 -8 6 -16 110 -92 125 -92 9 0 13 -6
10 -14 -6 -16 16 -40 26 -29 4 3 7 1 7 -5 0 -6 14 -13 30 -17 17 -4 30 -10 30
-14 0 -4 15 -15 33 -25 100 -59 267 -218 267 -256 0 -6 4 -10 9 -10 5 0 11
-14 15 -31 3 -17 19 -50 35 -74 31 -45 40 -77 73 -245 18 -93 24 -186 14 -230
-6 -30 -18 -50 -27 -44 -5 3 -9 -16 -9 -42 0 -43 -1 -46 -13 -29 -16 20 -37
13 -37 -13 0 -10 -9 -34 -20 -55 -24 -44 -26 -113 -5 -177 l14 -45 -1 42 c-1
24 -6 39 -11 36 -6 -4 -7 5 -3 23 10 41 30 84 38 84 13 0 9 -21 -7 -36 -16
-17 -21 -39 -6 -30 5 4 16 3 25 0 14 -5 14 -8 1 -21 -12 -11 -12 -19 -4 -35 6
-11 9 -22 6 -24 -3 -3 -1 -22 4 -42 10 -42 12 -184 4 -252 -4 -25 -17 -87 -30
-138 -13 -51 -22 -98 -19 -105 2 -7 -1 -20 -8 -29 -12 -15 -17 -15 -58 -1 -25
8 -47 18 -50 22 -10 14 -87 54 -127 66 -41 12 -61 11 -130 -10 -13 -4 -23 -9
-23 -11 0 -14 67 -94 79 -94 9 0 39 -18 66 -39 28 -22 78 -54 113 -71 34 -18
62 -35 62 -39 0 -4 18 -18 41 -30 34 -20 48 -22 100 -16 32 4 59 11 59 17 0 5
-4 6 -10 3 -18 -11 -10 6 10 23 20 17 21 25 34 177 2 17 15 80 31 140 21 82
28 136 29 210 2 171 -6 261 -25 284 -18 22 -39 28 -39 11 0 -19 -16 -10 -17
10 -1 13 2 18 9 14 7 -4 8 -2 4 4 -4 6 -13 9 -21 5 -30 -11 -15 30 27 76 49
53 63 62 53 32 -4 -12 -2 -21 4 -21 6 0 11 9 11 20 0 15 7 20 25 20 28 0 32 8
10 24 -12 10 -12 19 0 71 23 94 12 267 -25 426 -15 66 -93 240 -122 277 -6 6
-8 12 -5 12 20 0 -159 185 -230 237 -34 26 -64 52 -67 60 -3 7 -13 13 -23 13
-10 0 -31 14 -47 30 -15 17 -42 37 -60 44 -17 8 -52 34 -79 60 -26 25 -52 46
-57 46 -6 0 -10 5 -10 11 0 5 -4 8 -9 5 -4 -3 -32 12 -61 34 -29 22 -61 42
-72 45 -10 4 -18 11 -18 16 0 20 -56 58 -86 59 -16 0 -40 9 -52 20 -12 11 -22
19 -24 19 -2 -1 -16 -7 -33 -13z m867 -1548 c-14 -28 -17 -30 -20 -13 -3 10 1
21 7 23 6 2 9 8 5 13 -3 5 1 9 10 9 12 0 12 -5 -2 -32z m143 -128 c3 -5 2 -10
-4 -10 -5 0 -13 5 -16 10 -3 6 -2 10 4 10 5 0 13 -4 16 -10z"/>
<path d="M8199 8707 c-9 -12 -15 -37 -14 -55 3 -34 -3 -40 -23 -20 -9 9 -12 7
-12 -9 0 -13 13 -29 36 -42 40 -24 44 -25 44 -10 0 13 16 28 52 52 25 16 26
20 16 45 -14 32 -47 62 -68 61 -8 0 -22 -10 -31 -22z"/>
<path d="M2600 8411 c0 -5 7 -11 14 -14 10 -4 13 -1 9 9 -6 15 -23 19 -23 5z"/>
<path d="M8141 8394 c-12 -15 -21 -36 -21 -46 0 -11 -8 -22 -18 -25 -14 -3
-18 -11 -14 -30 3 -15 -1 -29 -8 -33 -11 -7 -11 -11 -1 -24 11 -13 11 -24 0
-61 -12 -41 -16 -45 -46 -45 -17 0 -44 5 -59 10 -33 13 -40 8 -19 -14 9 -9 14
-20 11 -25 -6 -10 16 -61 27 -61 4 0 7 -7 7 -15 0 -8 6 -15 13 -15 7 0 4 -5
-5 -11 -14 -8 -15 -13 -6 -29 15 -24 -6 -99 -33 -118 -10 -7 -19 -23 -19 -36
0 -12 -5 -27 -12 -34 -9 -9 -9 -15 0 -24 15 -15 16 -50 2 -64 -7 -7 -6 -16 3
-29 12 -15 11 -21 -5 -37 -10 -10 -25 -18 -34 -18 -11 0 -14 -6 -9 -20 4 -12
2 -27 -5 -34 -6 -8 -10 -18 -8 -22 1 -5 -3 -19 -10 -31 -13 -24 -10 -67 7 -87
8 -9 6 -17 -7 -29 -12 -11 -18 -34 -20 -86 l-3 -71 28 12 c43 18 59 35 71 76
11 39 6 99 -10 119 -6 7 -4 14 4 20 8 4 24 24 36 44 26 43 31 126 8 135 -37
14 -28 60 12 59 33 -1 65 13 57 25 -3 6 1 7 9 4 12 -5 16 0 15 17 0 13 2 33 6
44 4 14 -2 30 -19 50 -14 16 -23 32 -20 36 2 4 0 10 -6 14 -17 10 -12 20 20
38 17 10 30 25 30 33 0 8 4 14 9 14 5 0 12 12 15 28 8 32 38 96 48 100 6 3 -9
39 -22 52 -8 8 -30 49 -30 56 0 5 23 0 59 -14 10 -4 13 -1 8 12 -7 18 24 89
44 101 5 4 16 -1 24 -11 7 -11 16 -16 20 -13 3 4 0 13 -7 20 -8 8 -29 38 -48
67 -18 28 -37 52 -41 52 -4 0 -17 -12 -28 -26z m-108 -344 c-5 -19 -23 -29
-23 -12 0 7 20 32 26 32 1 0 0 -9 -3 -20z m-124 -671 c-19 -12 -29 -11 -29 2
0 5 5 7 10 4 6 -3 13 2 17 11 5 13 8 14 11 5 2 -7 -2 -17 -9 -22z"/>
<path d="M8060 8365 c-10 -12 -9 -16 5 -21 17 -7 38 13 29 28 -8 12 -20 10
-34 -7z"/>
<path d="M7411 8284 c0 -11 3 -14 6 -6 3 7 2 16 -1 19 -3 4 -6 -2 -5 -13z"/>
<path d="M927 8224 c-24 -24 -25 -30 -21 -102 7 -101 11 -119 30 -126 11 -4
18 1 21 14 12 47 35 10 39 -65 2 -27 6 -72 8 -100 3 -27 5 -54 5 -59 1 -4 12
-6 26 -4 22 5 25 2 25 -23 0 -15 4 -30 8 -33 4 -2 9 -30 10 -61 3 -82 15 -98
60 -90 21 3 45 8 54 11 16 5 17 -4 14 -95 -2 -55 -6 -104 -9 -108 -3 -5 2 -23
12 -40 28 -46 119 -81 136 -53 18 28 25 0 25 -93 0 -130 8 -141 108 -142 l67
-1 7 -39 c3 -22 9 -57 13 -78 8 -48 69 -117 103 -117 13 0 38 -10 55 -22 19
-13 32 -18 34 -11 5 13 51 -7 100 -43 17 -13 36 -24 42 -24 6 0 11 -4 11 -10
0 -5 5 -10 10 -10 6 0 10 4 10 8 0 10 -89 102 -98 102 -4 0 -13 9 -20 20 -15
24 -72 60 -131 84 -58 22 -71 41 -70 96 2 55 -19 138 -40 164 -9 10 -15 20
-13 22 1 2 2 12 1 22 0 14 -2 14 -8 -3 -5 -11 -7 -23 -4 -27 2 -5 -5 -8 -17
-8 -12 0 -30 -5 -41 -11 -30 -15 -52 6 -44 43 6 24 4 27 -12 22 -17 -5 -17 -5
0 6 9 6 17 19 17 29 0 17 -7 36 -62 161 -11 25 -36 62 -57 83 -20 21 -35 40
-33 43 1 2 -5 20 -13 40 -8 20 -15 42 -15 48 0 28 -47 141 -58 138 -7 -1 -12
5 -12 14 0 8 -4 13 -10 9 -5 -3 -16 7 -24 22 -8 15 -24 36 -35 45 -17 15 -21
29 -21 81 0 51 -4 68 -20 82 -11 10 -20 28 -20 41 0 13 -4 26 -10 29 -5 3 -14
23 -20 45 -10 36 -61 100 -79 100 -5 0 -20 -11 -34 -26z"/>
<path d="M3055 8200 c3 -5 8 -10 11 -10 2 0 4 5 4 10 0 6 -5 10 -11 10 -5 0
-7 -4 -4 -10z"/>
<path d="M7230 8010 c0 -5 5 -10 11 -10 5 0 7 5 4 10 -3 6 -8 10 -11 10 -2 0
-4 -4 -4 -10z"/>
<path d="M7635 7809 c-4 -6 -5 -12 -2 -15 2 -3 7 2 10 11 7 17 1 20 -8 4z"/>
<path d="M7895 7640 c-3 -5 -2 -10 4 -10 5 0 13 5 16 10 3 6 2 10 -4 10 -5 0
-13 -4 -16 -10z"/>
<path d="M4420 6827 c-48 -13 -150 -65 -150 -77 0 -4 -20 -32 -45 -62 -25 -30
-45 -60 -45 -67 0 -7 -7 -26 -16 -43 -37 -72 -55 -409 -25 -465 6 -12 11 -30
11 -39 0 -10 10 -51 22 -91 17 -58 35 -90 87 -155 36 -44 81 -89 100 -99 19
-10 39 -23 45 -29 5 -5 18 -10 27 -10 9 0 22 -7 29 -15 7 -9 29 -15 50 -15 27
0 48 -8 71 -27 28 -24 44 -28 104 -31 50 -3 81 1 101 11 16 8 34 12 41 10 16
-6 121 52 148 81 11 12 29 35 40 50 11 16 26 34 33 42 7 8 15 26 16 41 2 16 4
31 5 35 0 4 10 15 20 25 11 10 21 37 24 63 3 25 11 65 18 90 8 27 12 89 11
153 -2 89 -8 125 -31 197 -32 97 -109 239 -129 240 -7 0 -11 4 -8 9 8 12 -84
91 -106 91 -10 0 -18 6 -18 13 0 13 -45 37 -70 37 -9 0 -21 5 -27 11 -30 30
-251 47 -333 26z m424 -302 c3 -8 13 -15 23 -16 14 0 13 -2 -5 -9 -20 -8 -21
-13 -12 -31 14 -24 13 -25 -22 -34 -21 -5 -26 -3 -25 12 1 10 -4 17 -12 15
-14 -3 -40 25 -41 44 0 6 7 11 15 11 9 0 14 -6 11 -13 -3 -7 1 -15 9 -17 8 -4
15 5 19 24 6 31 30 39 40 14z m41 -55 c-3 -5 -11 -10 -16 -10 -6 0 -7 5 -4 10
3 6 11 10 16 10 6 0 7 -4 4 -10z m15 -35 c5 3 11 1 15 -5 3 -5 -2 -10 -12 -10
-17 -1 -17 -1 1 -15 17 -13 17 -17 5 -32 -9 -11 -10 -14 -1 -9 7 4 12 2 12 -4
0 -6 5 -8 10 -5 6 3 10 1 10 -5 0 -7 -7 -10 -14 -7 -9 4 -17 -2 -21 -14 -4
-10 -14 -19 -23 -19 -10 0 -13 -3 -6 -8 18 -12 25 -42 9 -42 -9 0 -12 6 -9 18
5 16 5 16 -6 -1 -20 -31 -30 -8 -11 26 19 34 32 97 21 97 -4 0 -6 10 -4 23 3
31 5 34 11 19 2 -6 9 -10 13 -7z m-47 -32 c5 -26 4 -26 -9 -9 -7 10 -11 23 -8
27 8 14 11 11 17 -18z m87 -89 c0 -3 -6 -12 -14 -19 -17 -18 -29 -8 -13 11 12
14 27 18 27 8z"/>
<path d="M4822 6490 c0 -14 2 -19 5 -12 2 6 2 18 0 25 -3 6 -5 1 -5 -13z"/>
<path d="M1946 6667 c3 -10 9 -15 12 -12 3 3 0 11 -7 18 -10 9 -11 8 -5 -6z"/>
<path d="M5175 5790 c-3 -11 -13 -20 -21 -20 -8 0 -12 -4 -9 -10 3 -5 1 -10
-5 -10 -6 0 -9 -4 -6 -8 3 -5 -2 -18 -12 -28 -22 -25 -46 -75 -43 -92 1 -7
-10 -23 -24 -34 -22 -17 -135 -230 -135 -254 0 -5 -41 -65 -51 -74 -3 -3 -6
-14 -6 -25 -4 -59 -13 -105 -28 -144 -9 -24 -15 -65 -13 -90 3 -40 6 -46 26
-49 15 -2 32 5 43 17 11 12 23 21 27 21 4 0 23 42 41 93 38 104 78 194 91 202
5 3 28 40 51 83 24 42 47 80 53 84 6 4 7 10 3 14 -3 4 3 15 15 25 11 11 16 19
10 19 -6 0 -9 12 -7 28 15 109 30 154 24 70 -5 -59 10 -49 35 24 11 29 22 58
26 63 29 41 13 77 -43 103 -36 15 -35 16 -42 -8z m75 -59 c0 -6 -4 -13 -10
-16 -5 -3 -10 1 -10 9 0 9 5 16 10 16 6 0 10 -4 10 -9z m-167 -191 c-3 -11 -9
-20 -14 -20 -10 0 -12 24 -2 33 13 13 21 7 16 -13z"/>
<path d="M7120 5790 c0 -5 5 -10 11 -10 5 0 7 5 4 10 -3 6 -8 10 -11 10 -2 0
-4 -4 -4 -10z"/>
<path d="M4535 5630 c3 -5 8 -10 11 -10 2 0 4 5 4 10 0 6 -5 10 -11 10 -5 0
-7 -4 -4 -10z"/>
<path d="M5191 5534 c0 -11 3 -14 6 -6 3 7 2 16 -1 19 -3 4 -6 -2 -5 -13z"/>
<path d="M1284 4925 c-10 -8 -14 -15 -7 -15 7 0 10 -7 7 -15 -4 -8 -2 -15 4
-15 6 0 9 8 8 18 -2 9 2 20 8 24 6 4 8 9 5 12 -3 3 -14 -1 -25 -9z"/>
<path d="M1243 4845 c-18 -20 -16 -41 5 -41 11 0 18 9 19 28 2 31 -5 35 -24
13z"/>
<path d="M7527 4824 c4 -10 2 -15 -3 -11 -6 3 -16 2 -24 -3 -11 -7 -7 -10 13
-15 15 -4 24 -12 21 -17 -4 -6 2 -8 15 -3 11 3 75 7 141 8 72 1 120 6 120 12
0 6 -9 10 -19 10 -10 1 -26 7 -35 14 -10 9 -25 11 -43 6 -25 -7 -54 -8 -131
-6 -13 1 -32 6 -43 11 -15 9 -17 8 -12 -6z"/>
<path d="M7377 4808 c-9 -6 -8 -8 3 -9 8 -1 19 -1 24 0 5 1 12 -3 16 -9 4 -7
18 -8 33 -4 30 7 36 23 10 26 -50 4 -75 3 -86 -4z"/>
<path d="M7488 4773 c7 -3 16 -2 19 1 4 3 -2 6 -13 5 -11 0 -14 -3 -6 -6z"/>
<path d="M7560 4756 c0 -2 7 -6 15 -10 8 -3 15 -1 15 4 0 6 -7 10 -15 10 -8 0
-15 -2 -15 -4z"/>
<path d="M7458 4653 c6 -2 18 -2 25 0 6 3 1 5 -13 5 -14 0 -19 -2 -12 -5z"/>
<path d="M5422 3848 c2 -6 10 -14 16 -16 7 -2 10 2 6 12 -7 18 -28 22 -22 4z"/>
<path d="M2735 3110 c-3 -5 -1 -10 4 -10 6 0 11 5 11 10 0 6 -2 10 -4 10 -3 0
-8 -4 -11 -10z"/>
<path d="M2805 3070 c-3 -5 -1 -10 4 -10 6 0 11 5 11 10 0 6 -2 10 -4 10 -3 0
-8 -4 -11 -10z"/>
<path d="M3468 2823 c7 -3 16 -2 19 1 4 3 -2 6 -13 5 -11 0 -14 -3 -6 -6z"/>
<path d="M3500 2820 c0 -5 7 -10 15 -10 8 0 15 5 15 10 0 6 -7 10 -15 10 -8 0
-15 -4 -15 -10z"/>
<path d="M8113 3654 c-11 -5 -114 -136 -145 -185 -9 -15 -84 -87 -167 -160
-85 -76 -146 -138 -141 -143 5 -5 21 1 39 13 40 29 49 9 10 -22 -18 -14 -29
-29 -25 -35 7 -12 44 -5 66 13 21 17 110 68 143 82 68 30 237 236 213 260 -3
3 1 14 8 25 8 11 12 28 9 38 -3 12 3 22 17 30 11 6 26 23 31 38 8 21 7 29 -7
39 -18 13 -30 15 -51 7z m-263 -399 c-7 -9 -15 -13 -19 -10 -3 3 1 10 9 15 21
14 24 12 10 -5z m-60 -45 c0 -5 -7 -10 -16 -10 -8 0 -12 5 -9 10 3 6 10 10 16
10 5 0 9 -4 9 -10z"/>
<path d="M8197 3399 c7 -7 15 -10 18 -7 3 3 -2 9 -12 12 -14 6 -15 5 -6 -5z"/>
<path d="M8090 3250 c-13 -8 -13 -10 2 -10 9 0 20 5 23 10 8 13 -5 13 -25 0z"/>
<path d="M8009 3173 c-8 -10 -30 -31 -48 -46 -18 -15 -31 -30 -29 -32 2 -3 29
17 59 45 30 27 49 49 44 50 -6 0 -17 -8 -26 -17z"/>
<path d="M7868 3059 c-10 -5 -18 -17 -18 -25 0 -12 4 -12 25 3 37 27 31 45 -7
22z"/>
<path d="M8511 2684 c0 -11 3 -14 6 -6 3 7 2 16 -1 19 -3 4 -6 -2 -5 -13z"/>
<path d="M8477 2371 c-3 -11 1 -22 7 -24 14 -5 39 27 29 37 -13 12 -31 5 -36
-13z"/>
<path d="M6840 4569 c-41 -17 -80 -68 -73 -100 3 -15 -1 -36 -10 -50 -9 -13
-19 -42 -23 -64 -3 -22 -10 -44 -14 -50 -4 -5 -11 -26 -15 -45 -3 -19 -15 -62
-25 -95 -50 -165 -68 -247 -80 -362 -6 -54 -13 -109 -15 -123 -6 -32 15 -100
30 -100 21 0 61 62 75 115 7 28 17 56 23 63 5 6 6 12 3 12 -4 0 0 10 8 22 9
13 16 43 16 71 0 30 6 54 15 64 8 8 13 19 10 23 -3 5 2 35 11 66 9 31 14 67
11 80 -2 13 0 21 4 18 5 -3 9 -2 10 3 4 52 13 83 29 106 12 15 16 27 10 27 -5
0 -10 11 -10 25 0 14 5 25 10 25 6 0 10 5 10 11 0 5 -4 7 -10 4 -15 -9 -12 4
4 21 8 8 18 39 21 69 4 30 13 59 20 63 7 4 16 31 20 60 7 50 6 52 -17 51 -12
0 -34 -5 -48 -10z"/>
<path d="M6515 4430 c-3 -5 -1 -10 4 -10 6 0 11 5 11 10 0 6 -2 10 -4 10 -3 0
-8 -4 -11 -10z"/>
<path d="M6220 4251 c0 -6 4 -13 10 -16 6 -3 7 1 4 9 -7 18 -14 21 -14 7z"/>
<path d="M5670 2749 c0 -5 -4 -8 -8 -5 -4 2 -14 -4 -21 -16 -11 -18 -10 -19
11 -13 31 10 53 45 28 45 -5 0 -10 -5 -10 -11z"/>
<path d="M4965 2290 c-3 -5 -1 -10 4 -10 6 0 11 5 11 10 0 6 -2 10 -4 10 -3 0
-8 -4 -11 -10z"/>
<path d="M6221 2156 c-8 -10 -9 -16 -1 -21 5 -3 13 1 16 10 9 22 -1 29 -15 11z"/>
<path d="M1585 3354 c-9 -9 -13 -19 -10 -22 3 -3 14 4 25 16 24 25 10 30 -15
6z"/>
<path d="M2631 2394 c0 -11 3 -14 6 -6 3 7 2 16 -1 19 -3 4 -6 -2 -5 -13z"/>
<path d="M3245 2119 c-4 -6 -5 -12 -2 -15 2 -3 7 2 10 11 7 17 1 20 -8 4z"/>
<path d="M5028 2920 c-14 -15 -14 -19 -3 -24 8 -3 17 3 20 15 9 28 2 32 -17 9z"/>
<path d="M7502 2145 c12 -27 34 -35 24 -9 -3 9 -6 20 -6 25 0 5 -7 9 -15 9
-12 0 -13 -4 -3 -25z"/>
<path d="M5050 2009 c0 -5 5 -7 10 -4 6 3 10 8 10 11 0 2 -4 4 -10 4 -5 0 -10
-5 -10 -11z"/>
<path d="M5287 1963 c-24 -28 -22 -32 19 -28 41 4 51 10 29 18 -8 4 -15 1 -16
-6 -1 -7 -4 -1 -8 11 -6 23 -6 24 -24 5z"/>
<path d="M5370 1955 c-11 -13 -10 -14 4 -9 9 3 16 10 16 15 0 13 -6 11 -20 -6z"/>
<path d="M6908 1853 c7 -3 16 -2 19 1 4 3 -2 6 -13 5 -11 0 -14 -3 -6 -6z"/>
<path d="M5443 1835 c-3 -9 -4 -17 -2 -19 8 -7 49 13 49 24 0 16 -40 12 -47
-5z"/>
<path d="M6748 1439 c-50 -25 -63 -51 -39 -73 11 -10 25 -31 31 -47 10 -23 15
-27 26 -18 10 8 14 8 14 0 0 -6 7 -11 15 -11 8 0 15 5 15 10 0 6 8 10 19 10
10 0 24 7 31 15 12 14 15 14 31 -1 19 -17 39 -12 39 12 0 8 5 14 11 14 6 0 0
13 -13 29 -17 22 -31 30 -53 29 -16 0 -23 -2 -14 -5 10 -2 17 -14 17 -29 l0
-24 -32 18 c-20 12 -31 27 -32 43 -3 57 -6 59 -66 28z"/>
<path d="M6890 1451 c0 -13 29 -35 37 -28 7 8 -15 37 -28 37 -5 0 -9 -4 -9 -9z"/>
<path d="M4868 1442 c-10 -2 -18 -10 -18 -18 0 -8 -7 -14 -15 -14 -11 0 -13
-8 -9 -32 10 -56 12 -60 36 -53 22 6 22 6 4 -9 -11 -9 -23 -16 -28 -16 -4 0
-5 -7 -2 -15 4 -8 15 -15 25 -15 14 0 19 -7 19 -26 0 -14 4 -23 10 -19 10 6
14 -13 11 -47 -1 -9 3 -19 9 -23 5 -3 10 -15 10 -26 0 -11 5 -29 11 -40 9 -18
12 -19 27 -6 9 8 32 18 50 22 25 5 32 12 32 30 0 13 -5 27 -10 30 -6 4 -8 11
-4 16 9 16 -19 259 -31 260 -28 4 -112 4 -127 1z"/>
<path d="M7016 1361 c-4 -7 -5 -15 -2 -18 9 -9 19 4 14 18 -4 11 -6 11 -12 0z"/>
<path d="M6995 1301 c5 -21 4 -23 -9 -12 -17 15 -21 4 -7 -18 5 -7 14 -10 20
-7 6 4 11 0 11 -8 0 -20 -17 -20 -53 -1 -27 14 -29 13 -34 -5 -3 -11 -9 -20
-14 -20 -5 0 -9 -4 -9 -9 0 -12 130 -72 141 -65 12 7 11 62 -1 121 -9 39 -15
49 -31 49 -16 0 -19 -5 -14 -25z"/>
<path d="M7183 1276 c3 -7 0 -19 -6 -25 -22 -22 24 -40 53 -21 12 7 11 13 -10
34 -25 28 -45 34 -37 12z"/>
<path d="M6970 1076 c0 -2 7 -7 16 -10 8 -3 12 -2 9 4 -6 10 -25 14 -25 6z"/>
<path d="M6050 950 c0 -5 7 -7 15 -4 8 4 15 8 15 10 0 2 -7 4 -15 4 -8 0 -15
-4 -15 -10z"/>
<path d="M4215 970 c-3 -5 1 -10 9 -10 9 0 16 5 16 10 0 6 -4 10 -9 10 -6 0
-13 -4 -16 -10z"/>
<path d="M4171 941 c-8 -5 -9 -11 -3 -15 5 -3 12 1 16 9 6 17 6 18 -13 6z"/>
<path d="M4380 716 c0 -8 4 -17 9 -20 5 -4 7 3 4 14 -6 23 -13 26 -13 6z"/>
<path d="M4390 650 c0 -5 5 -10 11 -10 5 0 7 5 4 10 -3 6 -8 10 -11 10 -2 0
-4 -4 -4 -10z"/>
<path d="M2285 350 c10 -11 20 -18 23 -15 7 6 -18 35 -31 35 -5 0 -2 -9 8 -20z"/>
</g>
</svg>
